<?xml version="1.0" standalone="no"?>
<!DOCTYPE svg PUBLIC "-//W3C//DTD SVG 20010904//EN"
 "http://www.w3.org/TR/2001/REC-SVG-20010904/DTD/svg10.dtd">
<svg version="1.0" xmlns="http://www.w3.org/2000/svg"
 width="300.000000pt" height="300.000000pt" viewBox="0 0 300.000000 300.000000"
 preserveAspectRatio="xMidYMid meet">
<metadata>
Created by potrace 1.10, written by Peter Selinger 2001-2011
</metadata>
<g transform="translate(0.000000,300.000000) scale(0.050000,-0.050000)"
 stroke="none">
<path d="M5710 5855 c-51 -29 -114 -35 -142 -13 -35 28 -120 -74 -90 -109 28
-35 -142 -218 -186 -201 -15 6 -57 -25 -96 -71 -39 -44 -80 -81 -93 -81 -13 0
-34 -22 -46 -48 -14 -32 -33 -45 -52 -37 -24 9 -29 0 -21 -41 6 -29 3 -48 -7
-42 -9 6 -17 -7 -17 -28 0 -23 -134 -162 -350 -363 -192 -179 -344 -335 -337
-346 7 -12 4 -16 -7 -9 -22 14 -348 -278 -341 -303 15 -49 -1250 -1312 -1315
-1313 -51 0 -589 -516 -582 -558 11 -73 43 -53 273 173 263 259 1580 1541
2099 2044 193 186 103 92 -200 -211 -302 -302 -902 -897 -1333 -1322 -739
-729 -781 -775 -748 -805 34 -31 67 -2 563 503 290 295 756 766 1037 1046 280
281 384 380 230 220 -153 -159 -288 -296 -298 -304 -11 -8 -13 -20 -5 -28 8
-8 85 54 172 139 349 339 190 133 -318 -414 -203 -219 -433 -469 -510 -554
-77 -86 -150 -157 -161 -157 -35 -3 -131 -113 -114 -132 8 -9 5 -11 -7 -4 -13
7 -40 -10 -60 -39 -21 -29 -54 -70 -73 -90 -26 -27 -28 -37 -8 -37 15 0 79 54
142 120 63 66 122 115 133 109 10 -6 18 3 18 20 0 17 10 31 21 31 12 0 16 -9
9 -20 -7 -11 -3 -20 9 -20 11 0 21 9 21 20 0 11 13 20 28 20 15 0 33 13 39 30
6 16 24 24 40 18 16 -6 41 4 56 22 75 92 131 145 165 157 21 8 32 20 25 27 -7
7 15 30 49 50 34 21 67 56 72 77 6 21 25 40 43 41 20 1 23 5 9 11 -17 7 -9 26
25 60 27 27 57 44 67 38 10 -6 16 5 15 24 -2 19 17 44 42 55 25 11 45 27 45
36 0 9 23 39 51 67 38 37 45 57 30 76 -16 19 -10 33 24 55 93 60 92 60 85 -19
-4 -41 2 -86 14 -99 45 -55 41 -288 -6 -338 -24 -25 -38 -59 -32 -76 7 -16 -1
-40 -17 -53 -16 -13 -29 -32 -29 -43 0 -33 61 40 89 109 26 61 111 103 111 54
0 -11 -13 -19 -30 -19 -16 0 -30 -10 -30 -21 0 -12 9 -16 20 -9 32 19 23 -62
-9 -89 -21 -18 -24 -37 -10 -74 14 -36 13 -45 -4 -35 -16 10 -20 4 -11 -19 7
-18 3 -33 -9 -33 -12 0 -17 -12 -11 -27 12 -31 -52 -140 -71 -121 -16 15 -109
-88 -126 -139 -9 -24 -26 -33 -51 -27 -41 11 -54 -17 -14 -31 16 -5 15 -11 -5
-19 -75 -29 -81 42 -9 121 38 43 70 92 70 109 0 17 14 45 31 62 17 18 26 41
19 52 -14 22 -70 -23 -70 -57 0 -11 -11 -23 -25 -28 -19 -7 -19 -16 3 -43 16
-19 20 -32 10 -28 -18 6 -115 -72 -200 -160 -32 -33 -47 -38 -55 -20 -8 20
-18 17 -39 -9 -16 -19 -52 -35 -80 -35 -28 0 -57 -9 -64 -21 -7 -11 -24 -18
-37 -15 -14 4 -50 -19 -80 -49 -30 -30 -66 -55 -79 -55 -17 -1 -16 -6 3 -18
20 -13 12 -27 -33 -59 -33 -24 -83 -81 -110 -128 -27 -47 -68 -102 -91 -122
-22 -20 -47 -65 -54 -100 -8 -34 -28 -83 -44 -108 -22 -34 -28 -78 -20 -163 6
-64 4 -128 -5 -142 -9 -15 -6 -43 6 -62 29 -47 -23 -162 -95 -209 -28 -19 -51
-45 -51 -59 0 -14 -16 -32 -35 -39 -33 -13 -32 -16 3 -42 36 -27 37 -31 5 -65
-18 -21 -33 -52 -33 -71 0 -20 -16 -33 -40 -33 -27 0 -40 13 -40 41 0 34 -6
37 -40 19 -22 -12 -40 -37 -40 -56 1 -27 4 -28 18 -7 10 17 22 20 29 7 7 -11
-9 -34 -35 -51 -27 -17 -74 -55 -105 -85 -31 -29 -96 -79 -143 -112 -48 -33
-81 -65 -74 -72 7 -7 18 -4 26 7 12 17 64 46 154 87 10 4 6 -4 -10 -20 -99
-93 -240 -141 -240 -81 0 24 -7 21 -31 -13 -17 -24 -48 -44 -69 -44 -21 0 -43
-9 -50 -20 -7 -11 8 -20 32 -20 66 0 31 -23 -60 -40 -102 -18 -148 6 -92 49
33 25 34 30 7 30 -37 1 -83 -46 -63 -66 7 -7 0 -14 -16 -15 -57 -5 -89 5 -113
37 -15 20 -25 23 -25 8 0 -15 -17 -19 -46 -12 -26 6 -64 14 -85 17 -22 4 -37
20 -34 36 3 19 -24 39 -75 56 -52 17 -80 38 -80 61 0 43 -47 64 -78 33 -16
-16 -22 -13 -22 12 0 19 -12 34 -28 34 -15 0 -32 19 -38 43 -8 30 -23 39 -51
32 -68 -18 -98 17 -51 59 23 20 67 76 98 126 98 156 348 380 576 517 237 141
277 176 233 203 -23 15 -22 20 7 31 46 18 43 54 -11 104 -25 23 -56 56 -70 73
-15 18 -39 25 -60 18 -31 -12 -32 -10 -7 21 25 31 23 36 -18 47 -39 10 -41 15
-16 34 26 19 26 27 3 48 -17 16 -27 18 -27 4 0 -35 -75 -105 -97 -92 -23 14
-166 -183 -243 -335 -62 -121 -289 -358 -450 -469 -180 -125 -190 -134 -190
-190 0 -28 -9 -57 -20 -64 -18 -11 -22 -2 -28 75 -1 14 -11 32 -22 40 -13 9
-9 23 10 35 26 18 25 23 -5 42 -20 11 -31 28 -26 37 6 9 -7 21 -29 27 -41 11
-56 54 -19 54 12 0 15 10 8 21 -7 12 -23 18 -36 13 -14 -5 -24 15 -25 50 -1
32 -13 69 -26 82 -19 19 -20 11 -3 -34 19 -50 18 -55 -6 -34 -16 13 -35 46
-41 73 -7 27 -21 49 -32 49 -12 0 -12 19 0 51 12 30 12 47 1 40 -10 -6 -23 -3
-30 7 -6 10 2 23 18 29 22 8 25 25 11 73 -10 34 -13 78 -6 96 11 32 9 32 -24
0 -29 -27 -32 -40 -12 -63 16 -20 17 -34 3 -42 -12 -8 -22 -11 -23 -7 -19 78
39 193 83 165 9 -5 35 16 59 46 24 30 37 44 30 30 -21 -42 0 -28 88 57 46 46
78 88 72 95 -7 6 -18 3 -26 -9 -8 -11 -50 -42 -94 -68 -91 -54 -112 -79 -95
-109 6 -12 4 -15 -4 -7 -9 8 -32 6 -52 -5 -50 -26 -61 14 -26 99 39 95 18 101
-31 9 -29 -55 -40 -66 -41 -37 -1 63 79 183 100 149 20 -34 35 -4 46 91 8 76
32 130 56 130 11 0 13 -10 5 -23 -9 -14 -5 -18 9 -9 13 8 23 28 23 45 0 16 13
43 30 60 44 44 41 101 -3 64 -30 -24 -31 -23 -11 15 12 23 38 54 58 70 33 26
34 25 8 -7 -41 -53 -9 -68 43 -22 25 22 77 52 115 67 82 31 121 60 80 60 -18
0 -13 14 16 41 53 49 61 99 9 56 -19 -16 -69 -58 -111 -93 -104 -88 -143 -81
-44 8 102 91 175 130 209 109 16 -10 40 -2 64 22 21 21 47 33 57 27 10 -6 44
2 76 18 33 17 67 22 83 12 44 -26 88 30 61 79 -17 33 -15 38 10 28 16 -6 30
-20 30 -30 0 -11 11 -12 25 -4 33 21 197 27 185 7 -35 -57 137 -28 206 35 15
14 36 20 48 13 23 -15 116 31 116 57 0 22 82 93 108 94 27 1 180 145 196 185
8 20 23 36 34 36 11 0 24 16 31 36 10 33 42 43 145 44 24 0 49 9 56 20 7 11 3
20 -9 20 -11 0 -21 10 -21 22 0 12 14 17 31 10 35 -13 129 70 128 112 0 17
-10 13 -28 -10 -17 -23 -32 -29 -40 -15 -20 31 -88 -11 -115 -71 -17 -36 -27
-42 -39 -24 -13 20 -16 21 -17 1 0 -14 -14 -25 -31 -25 -27 0 -27 6 0 59 30
57 24 121 -11 121 -9 0 -12 13 -6 29 6 16 24 24 40 18 20 -8 25 -2 16 21 -7
17 -20 32 -30 32 -32 0 -19 41 28 86 26 24 52 59 59 76 6 18 54 53 105 78 61
30 85 51 69 61 -17 10 -13 21 17 37 57 31 64 28 64 -23 0 -25 7 -36 15 -24 20
29 82 54 155 63 33 3 63 15 67 27 13 39 152 91 203 77 28 -8 41 -15 30 -16
-11 -2 -6 -12 10 -23 25 -17 22 -27 -25 -68 -46 -41 -49 -49 -20 -56 58 -12
148 21 180 66 22 32 45 41 88 34 32 -4 63 -1 69 7 23 39 67 -6 46 -46 -12 -22
-17 -57 -12 -78 6 -21 2 -38 -8 -38 -10 0 -18 10 -18 23 0 13 -17 4 -37 -20
-21 -24 -46 -43 -57 -43 -10 0 -49 -36 -85 -79 -37 -44 -74 -76 -82 -71 -8 6
-31 -15 -50 -45 -61 -94 -273 -272 -218 -184 7 12 -5 10 -28 -4 -30 -18 -35
-30 -17 -41 23 -15 20 -18 -24 -23 -10 -2 -26 -11 -35 -21 -10 -11 -7 -12 8
-4 14 8 25 8 25 0 0 -18 -105 -118 -127 -121 -36 -6 -201 -174 -177 -182 13
-5 24 -34 24 -65 0 -32 8 -62 17 -68 23 -15 103 45 103 77 0 14 155 169 344
344 188 174 380 351 425 394 44 42 192 171 327 287 135 116 241 216 235 222
-6 6 -27 -3 -46 -19 -131 -108 -230 -116 -668 -53 -551 78 -765 -4 -1093 -421
l-85 -107 41 -66 c54 -88 51 -127 -22 -236 -181 -273 -634 -509 -739 -383 -14
17 -39 29 -57 27 -18 -2 -48 3 -67 11 -77 34 -597 -290 -781 -487 -444 -475
-431 -1142 32 -1605 16 -16 34 -51 41 -78 7 -27 7 -38 1 -24 -6 14 -20 20 -30
14 -32 -20 -19 -49 22 -49 22 0 38 -11 35 -24 -3 -13 9 -25 25 -26 53 -4 104
-35 289 -174 565 -428 1060 -426 1539 4 214 192 541 723 502 813 -9 21 -15 45
-12 55 2 9 -16 38 -40 64 -124 132 157 615 437 750 l92 45 80 -44 79 -43 108
83 c408 315 511 616 406 1187 -51 277 -51 385 0 450 22 28 39 60 40 73 0 36
1080 1169 1101 1156 11 -6 19 -1 19 11 0 12 7 18 16 13 9 -6 58 28 109 76 52
47 98 81 103 76 6 -5 16 14 23 43 8 29 31 62 51 73 21 11 38 34 38 50 0 16 10
27 23 24 12 -3 24 15 26 40 2 25 8 47 13 50 83 50 103 56 128 35 41 -34 148
64 113 106 -16 19 -18 35 -5 43 11 7 16 24 10 38 -5 15 4 38 21 52 74 61 -14
146 -99 96z m-5580 -4275 c8 -71 18 -137 23 -145 5 -8 0 -15 -12 -15 -11 0
-21 7 -21 15 -1 8 -6 78 -13 155 -15 175 4 167 23 -10z m1310 80 c11 -21 43
-61 70 -88 l49 -49 38 48 c46 58 73 65 44 11 -15 -28 -14 -42 4 -50 14 -6 3
-6 -25 1 -49 12 -49 12 -14 -28 20 -23 29 -46 19 -52 -26 -16 -107 8 -94 28
16 26 -20 38 -52 17 -25 -16 -24 -23 6 -46 53 -40 44 -56 -70 -132 -212 -142
-356 -266 -459 -396 -58 -74 -113 -137 -121 -141 -8 -3 -15 -18 -15 -33 0 -27
-42 -50 -92 -50 -21 0 -25 14 -16 50 7 28 2 63 -11 79 -24 28 38 85 65 59 5
-6 16 7 23 29 7 21 32 44 57 51 61 16 302 243 285 270 -8 13 -2 17 16 10 34
-13 259 206 246 240 -4 12 -19 20 -32 17 -13 -4 -18 4 -11 15 9 15 21 15 38 2
17 -15 34 -9 58 19 34 39 23 49 -43 40 -15 -2 -23 8 -18 23 6 14 22 23 38 20
22 -6 22 -2 1 19 -21 22 -29 22 -44 -3 -10 -16 -24 -23 -32 -15 -15 16 27 75
54 75 9 0 26 -18 38 -40z"/>
<path d="M3280 3881 c-24 -16 -25 -24 -4 -45 21 -21 29 -20 45 4 36 58 17 77
-41 41z"/>
<path d="M2624 3709 c-24 -18 -44 -22 -44 -10 0 39 -30 21 -64 -39 -35 -62
-10 -86 40 -36 13 13 30 16 39 7 8 -9 6 -20 -6 -24 -60 -22 -158 -84 -165
-104 -11 -34 24 -28 73 12 23 19 66 52 94 72 29 21 47 49 41 65 -6 15 -3 28 6
28 10 0 23 14 29 30 15 37 12 37 -43 -1z"/>
<path d="M2398 3658 c-27 -23 -60 -48 -76 -57 -15 -9 -23 -28 -18 -43 6 -19
24 -12 62 26 30 30 68 62 86 72 19 11 25 24 13 31 -11 7 -41 -6 -67 -29z"/>
<path d="M2880 3651 c0 -32 73 -26 108 9 13 13 0 20 -44 20 -42 0 -64 -10 -64
-29z"/>
<path d="M3110 3078 c-275 -286 -597 -619 -715 -740 -201 -207 -233 -258 -165
-258 15 0 33 -18 40 -39 6 -21 30 -45 51 -51 47 -15 50 -56 7 -92 -56 -46
-511 446 -464 503 l34 41 33 -51 c19 -28 43 -51 53 -51 25 0 108 103 101 125
-3 8 3 13 13 10 35 -10 366 309 343 332 -15 15 -30 9 -50 -18 -27 -35 -30 -36
-30 -4 -1 19 8 35 19 35 11 0 20 14 20 31 0 17 -8 26 -18 20 -10 -6 -22 -1
-26 10 -4 12 -22 -10 -41 -48 -24 -52 -26 -68 -8 -61 15 5 26 -3 26 -19 0 -16
-11 -25 -24 -20 -13 5 -30 -13 -37 -43 -7 -28 -22 -46 -33 -39 -11 6 -18 5
-16 -5 6 -30 -27 -86 -45 -75 -10 6 -42 -12 -73 -40 -61 -57 -129 -74 -85 -21
21 25 18 30 -18 30 -24 0 -48 -13 -55 -30 -6 -16 -19 -25 -28 -20 -21 14 -119
-31 -119 -54 0 -10 -7 -14 -16 -8 -9 5 -28 -9 -42 -32 -22 -35 -21 -40 2 -31
31 12 45 -57 16 -75 -21 -13 -4 -70 22 -70 9 0 11 15 4 33 -9 23 -5 29 11 19
12 -8 23 -32 23 -54 0 -22 -9 -35 -19 -29 -10 7 -29 -8 -42 -33 -13 -25 -62
-83 -110 -128 -48 -46 -82 -88 -75 -95 7 -8 83 61 169 152 169 180 217 193 59
16 -54 -60 -93 -120 -88 -133 10 -27 -61 -74 -81 -54 -7 7 -13 -2 -13 -19 0
-73 47 -50 195 94 85 83 163 151 174 151 20 0 -77 -108 -184 -205 -36 -33 -65
-72 -65 -88 0 -16 -8 -24 -19 -18 -33 21 -44 -28 -16 -68 27 -38 30 -37 96 34
38 40 58 66 44 58 -15 -10 -25 -4 -25 14 0 35 55 59 65 29 4 -14 22 -8 46 16
22 21 65 61 98 88 l58 50 -41 -60 c-23 -33 -65 -82 -93 -108 -29 -26 -47 -56
-40 -66 6 -10 28 -3 49 16 21 19 38 27 38 18 0 -10 20 1 45 22 88 78 131 104
90 56 -42 -50 -44 -68 -7 -68 15 0 39 -14 53 -31 14 -17 38 -26 54 -20 20 8
24 0 15 -29 -31 -97 173 61 208 162 15 44 12 57 -14 68 -27 10 -28 15 -6 29
21 13 17 20 -16 30 -53 17 -23 70 34 62 19 -3 23 -1 9 3 -34 12 -32 25 10 64
64 59 92 102 66 102 -13 0 -77 -51 -142 -113 -150 -142 -154 -124 -8 34 62 68
104 130 97 143 -8 12 -5 17 6 10 19 -12 282 243 318 309 10 18 149 171 309
340 160 169 336 357 390 417 55 61 106 113 114 117 8 3 15 15 15 25 0 41 -51
-7 -530 -504z"/>
<path d="M2294 3452 c-14 -36 2 -52 54 -52 32 1 35 5 14 18 -15 10 -21 28 -13
40 7 12 1 22 -16 22 -16 0 -34 -13 -39 -28z"/>
<path d="M2710 3400 c-32 -33 -51 -60 -43 -60 23 0 152 89 153 105 0 34 -56
11 -110 -45z"/>
<path d="M2589 3358 c-7 -12 -4 -31 8 -43 14 -14 15 -33 1 -58 -13 -25 -13
-37 1 -37 18 0 61 62 61 89 0 6 -11 9 -25 6 -14 -3 -22 10 -19 30 6 39 -7 46
-27 13z"/>
<path d="M3770 3254 c-106 -112 -122 -147 -29 -64 48 44 92 82 96 84 4 2 4 13
0 24 -4 12 -34 -8 -67 -44z"/>
<path d="M2228 3145 c-26 -17 -29 -85 -5 -85 10 0 17 18 17 39 0 29 9 36 33
27 23 -9 29 -5 19 11 -16 26 -33 29 -64 8z"/>
<path d="M3778 3087 c-17 -5 -52 -44 -76 -88 -35 -61 -37 -76 -13 -67 17 7 31
21 31 32 0 11 14 15 30 9 24 -9 28 -1 18 38 -8 30 -4 49 10 49 12 0 22 -11 22
-25 1 -17 7 -15 20 5 36 56 28 65 -42 47z"/>
<path d="M2373 3050 c-17 -16 -36 -30 -43 -30 -7 0 -26 -13 -43 -30 -35 -35
-28 -37 40 -11 28 11 60 38 72 60 26 48 16 53 -26 11z"/>
<path d="M3582 3016 c-67 -72 -69 -98 -2 -42 43 36 90 106 72 106 -6 0 -37
-29 -70 -64z"/>
<path d="M3586 2921 c-6 -25 -22 -35 -43 -28 -24 8 -26 6 -7 -8 14 -10 20 -33
12 -53 -10 -26 -18 -29 -29 -11 -11 18 -30 9 -67 -31 -64 -69 -58 -80 23 -40
63 32 129 115 139 175 8 48 -15 45 -28 -4z"/>
<path d="M3700 2881 c0 -11 -48 -58 -107 -105 -119 -95 -204 -203 -184 -234
17 -29 75 -2 63 29 -12 31 118 185 139 164 9 -8 -4 -36 -28 -61 -23 -26 -43
-54 -43 -63 0 -10 17 2 37 26 21 24 46 43 55 44 31 1 108 74 108 102 0 14 -14
6 -31 -19 -31 -44 -69 -59 -69 -27 0 10 22 50 49 90 28 40 41 73 30 73 -10 0
-19 -9 -19 -19z"/>
<path d="M1944 2810 c-37 -16 -143 -96 -236 -177 -179 -158 -272 -213 -356
-213 -69 0 -74 81 -7 110 59 26 60 98 2 106 -99 14 -140 -145 -58 -227 104
-104 234 -54 510 198 186 170 267 215 309 173 16 -17 13 -30 -13 -49 -52 -38
-45 -95 10 -87 48 6 72 100 39 151 -26 39 -129 47 -200 15z"/>
<path d="M3284 2698 c-48 -45 -83 -86 -78 -91 10 -10 76 51 142 128 58 68 32
53 -64 -37z"/>
<path d="M3800 2672 c0 -15 -13 -33 -30 -39 -16 -7 -30 -25 -30 -42 0 -18 12
-25 29 -19 33 13 79 128 50 128 -10 0 -19 -13 -19 -28z"/>
<path d="M3087 2600 c-24 -9 -49 -27 -56 -39 -8 -12 -24 -16 -36 -8 -14 9 -17
2 -10 -17 9 -24 2 -29 -26 -21 -22 5 -39 0 -39 -13 0 -12 15 -22 32 -22 23 0
27 -7 14 -25 -11 -14 -26 -42 -34 -64 -25 -69 67 27 99 104 15 36 50 74 78 85
28 10 51 24 51 30 0 14 -22 11 -73 -10z"/>
<path d="M841 2421 c-29 -53 -27 -61 19 -61 46 0 51 -20 15 -59 -38 -40 69
-11 150 42 36 22 49 36 29 29 -29 -9 -34 -4 -25 26 8 23 1 42 -16 48 -22 9
-27 -2 -20 -47 8 -50 4 -57 -27 -46 -59 22 -84 48 -73 78 17 43 -29 35 -52
-10z"/>
<path d="M3185 2436 c4 -13 32 -25 61 -27 43 -2 49 3 31 24 -27 33 -103 36
-92 3z"/>
<path d="M1086 2328 c-6 -18 -1 -39 13 -47 18 -11 16 -23 -9 -48 -18 -18 -23
-33 -12 -33 12 0 33 18 47 40 13 22 36 40 50 40 14 0 25 9 25 20 0 11 -20 20
-45 20 -36 1 -39 4 -15 20 26 16 25 19 -6 20 -19 0 -41 -14 -48 -32z"/>
<path d="M2860 2255 c-22 -36 -39 -78 -39 -95 1 -17 12 -8 25 20 13 28 35 62
49 76 25 27 34 64 15 64 -6 0 -28 -29 -50 -65z"/>
<path d="M1198 2238 c-23 -23 -35 -47 -28 -55 7 -7 22 3 33 23 11 19 27 30 36
25 9 -6 22 3 28 19 17 43 -20 37 -69 -12z"/>
<path d="M642 2190 c-37 -39 -75 -70 -85 -70 -9 0 -17 -15 -17 -32 0 -28 5
-29 34 -5 29 24 32 23 20 -10 -10 -25 -6 -34 11 -28 14 5 24 24 22 41 -3 37
86 127 106 108 7 -8 -4 -34 -24 -59 -21 -25 0 -9 47 34 46 44 84 83 84 88 0 5
-16 -6 -37 -24 -42 -38 -65 -43 -58 -10 11 49 -39 33 -103 -33z"/>
<path d="M2600 2210 c-26 -31 -15 -90 17 -90 10 0 29 14 43 30 35 42 80 38 80
-7 0 -47 -78 -162 -190 -281 -274 -291 -316 -446 -145 -542 73 -40 162 4 171
86 9 77 -89 80 -108 3 -9 -34 -23 -48 -42 -40 -16 6 -38 11 -48 11 -72 0 11
177 166 351 183 206 236 287 236 358 0 113 -120 194 -180 121z"/>
<path d="M1590 2195 c-8 -19 -27 -35 -42 -35 -31 0 -38 -51 -10 -69 23 -14 87
84 76 115 -6 15 -15 11 -24 -11z"/>
<path d="M490 2180 c7 -11 -26 -56 -72 -100 -88 -83 -96 -122 -15 -76 84 47
156 196 95 196 -11 0 -15 -9 -8 -20z"/>
<path d="M707 2063 c-35 -31 -78 -86 -96 -121 l-33 -64 61 31 c63 33 84 59 31
38 -54 -20 -31 22 40 73 38 28 69 61 69 75 1 34 -1 33 -72 -32z"/>
<path d="M933 2071 c-29 -27 -53 -54 -53 -61 0 -24 80 32 100 70 28 53 17 50
-47 -9z"/>
<path d="M1000 2054 c-27 -14 -53 -42 -57 -64 -7 -33 -3 -35 24 -13 17 15 48
21 69 14 23 -7 51 3 74 29 20 22 27 40 16 40 -12 0 -32 -13 -46 -30 -13 -16
-33 -24 -43 -18 -11 7 -9 23 4 40 29 34 23 35 -41 2z"/>
<path d="M1450 2060 c-7 -12 -21 -16 -31 -9 -10 6 -13 -3 -7 -20 17 -43 108
-9 108 40 0 18 -58 8 -70 -11z"/>
<path d="M460 1964 c-38 -42 -90 -89 -115 -105 -37 -24 -122 -179 -98 -179 4
0 33 36 63 80 30 44 64 80 75 80 30 0 175 146 175 175 0 42 -27 28 -100 -51z"/>
<path d="M1201 1971 c-13 -16 -37 -24 -52 -18 -20 8 -29 -3 -29 -31 0 -27 -13
-42 -36 -42 -42 0 -124 -54 -124 -82 0 -11 9 -15 20 -8 11 7 20 4 20 -7 0 -46
-29 -86 -80 -113 -31 -16 -65 -56 -77 -89 -27 -78 5 -80 39 -3 14 32 35 54 47
50 43 -16 182 134 144 156 -31 17 -30 23 17 59 40 32 57 36 80 17 39 -32 80
-6 49 32 -18 21 -16 30 9 40 33 13 45 68 14 68 -9 0 -28 -13 -41 -29z"/>
<path d="M740 1921 c-38 -32 -64 -64 -57 -71 7 -7 30 5 50 27 20 22 62 46 92
54 30 7 50 21 44 31 -19 31 -57 19 -129 -41z"/>
<path d="M2041 1831 c-37 -45 -6 -75 37 -35 35 33 36 64 3 64 -9 0 -27 -13
-40 -29z"/>
<path d="M805 1746 c-62 -72 -60 -147 1 -81 13 14 24 38 24 53 0 16 11 32 25
37 14 5 25 -8 25 -27 0 -27 6 -30 23 -13 17 17 14 30 -9 54 -38 38 -35 39 -89
-23z"/>
<path d="M1826 1761 c-61 -71 -49 -110 15 -48 32 31 58 64 58 72 1 28 -39 15
-73 -24z"/>
<path d="M654 1729 c-29 -39 -30 -49 -7 -49 41 0 57 -54 20 -68 -17 -7 -39 -7
-50 0 -11 7 -25 -7 -31 -30 -6 -23 -23 -42 -37 -42 -15 0 -38 -16 -53 -35 -14
-19 -60 -58 -101 -85 -41 -28 -75 -63 -75 -78 0 -20 15 -14 50 18 35 33 50 39
50 18 0 -37 76 -103 101 -88 10 7 13 -2 7 -19 -9 -23 -4 -28 20 -19 51 19 0
108 -62 108 -19 0 -46 44 -46 73 0 5 18 4 40 -3 22 -7 40 -4 40 7 0 10 14 24
31 31 17 6 26 4 20 -6 -6 -10 3 -29 20 -43 24 -20 28 -20 20 3 -17 46 22 93
52 63 32 -32 64 -32 44 0 -25 40 -26 82 -3 109 30 37 57 32 42 -6 -11 -29 -6
-29 41 2 62 40 69 58 16 41 -22 -7 -58 7 -95 39 -32 27 -48 50 -35 50 12 0 28
14 34 30 18 46 -13 34 -53 -21z"/>
<path d="M1980 1750 c0 -16 -12 -30 -27 -30 -15 0 -44 -20 -65 -43 -21 -24
-27 -37 -13 -29 14 8 25 5 25 -7 0 -11 14 -21 32 -21 17 0 27 11 22 25 -5 14
-20 23 -33 20 -13 -4 -18 4 -10 16 7 12 18 17 24 10 14 -13 85 47 85 72 0 9
-9 17 -20 17 -11 0 -20 -13 -20 -30z"/>
<path d="M944 1429 c-24 -17 -44 -44 -44 -60 0 -16 -11 -29 -23 -29 -13 0 -18
-6 -10 -13 15 -16 88 46 116 98 23 43 18 43 -39 4z"/>
<path d="M693 1369 c6 -16 1 -29 -11 -29 -12 0 -22 11 -22 24 0 19 -5 19 -24
0 -39 -39 9 -73 62 -45 49 26 54 52 13 68 -19 7 -25 1 -18 -18z"/>
<path d="M2025 1307 c-25 -27 -45 -58 -45 -69 0 -11 -9 -15 -20 -8 -12 7 -19
6 -17 -4 7 -24 -161 -197 -185 -191 -12 4 -16 -2 -10 -12 6 -10 -2 -30 -19
-44 -17 -14 -26 -37 -21 -52 6 -15 2 -27 -9 -27 -10 0 -19 9 -19 20 0 11 -9
20 -20 20 -11 0 -20 -13 -20 -30 0 -16 10 -30 21 -30 12 0 16 -9 9 -20 -7 -12
-21 -15 -31 -9 -11 6 -17 -19 -14 -58 3 -38 12 -65 21 -60 8 6 13 21 10 34 -5
28 47 113 70 113 26 0 78 58 67 75 -14 23 41 91 64 77 10 -6 24 11 31 38 7 28
22 50 32 50 11 0 20 9 20 20 0 44 84 106 103 77 14 -20 17 -17 13 13 -4 26 5
39 26 38 23 -2 29 11 22 45 -11 57 -21 57 -79 -6z"/>
<path d="M366 1307 c-7 -19 -3 -38 9 -42 13 -4 18 -21 12 -36 -14 -35 16 -38
49 -5 29 29 32 63 4 46 -11 -7 -20 1 -20 18 0 45 -38 59 -54 19z"/>
<path d="M2108 1131 c-144 -159 -202 -253 -127 -206 21 14 39 33 39 42 0 20
122 132 144 133 8 0 10 -13 3 -30 -14 -38 20 -39 51 -2 14 16 18 51 11 80 -8
31 -3 65 12 83 87 105 -21 24 -133 -100z"/>
<path d="M1445 1121 c-20 -32 -18 -45 7 -70 29 -29 27 -36 -15 -73 -41 -36
-42 -40 -7 -27 22 7 56 18 75 24 19 5 35 17 35 27 0 9 20 35 44 57 23 22 36
47 27 56 -9 8 -21 4 -25 -10 -18 -49 -84 -69 -118 -36 -28 28 -23 39 16 34 8
-2 9 11 3 27 -14 37 -13 38 -42 -9z"/>
<path d="M2407 1135 c-8 -13 -17 -45 -20 -72 -3 -27 -28 -73 -57 -103 -40 -42
-46 -57 -24 -66 40 -15 69 9 85 71 14 56 49 96 49 55 0 -12 9 -17 20 -10 31
19 24 124 -9 137 -17 6 -36 1 -44 -12z"/>
<path d="M2144 996 c-11 -11 -17 -32 -12 -45 6 -14 -20 -54 -56 -91 -36 -36
-55 -60 -41 -52 14 8 25 5 25 -7 0 -11 -9 -21 -20 -21 -11 0 -20 -10 -20 -22
0 -13 -38 -58 -85 -101 -73 -68 -78 -77 -35 -66 50 13 302 249 265 249 -11 0
-31 -14 -45 -30 -14 -17 -30 -27 -34 -22 -13 12 57 117 99 148 19 15 35 34 35
43 0 27 -54 39 -76 17z"/>
<path d="M1538 808 c-34 -41 -40 -85 -11 -79 64 14 88 36 78 72 -12 47 -32 49
-67 7z"/>
<path d="M1359 775 c-68 -47 -99 -95 -60 -95 13 0 44 23 69 50 26 28 57 50 69
50 13 0 23 9 23 20 0 31 -28 24 -101 -25z"/>
<path d="M1750 705 c-17 -19 -30 -42 -30 -51 1 -8 -26 -39 -60 -67 -44 -37
-56 -58 -41 -76 11 -14 15 -31 7 -38 -20 -20 12 -16 55 8 22 11 39 30 39 41 0
11 -10 14 -22 7 -15 -10 -15 -1 1 29 13 24 32 38 42 31 10 -6 19 -2 19 10 0
11 12 21 27 21 15 0 48 18 73 40 60 52 41 51 -49 -2 -39 -23 -71 -32 -71 -20
0 12 8 22 18 22 9 0 22 18 28 40 13 49 3 51 -36 5z"/>
<path d="M1527 635 c-9 -14 -16 -38 -16 -55 -1 -16 -18 -33 -38 -37 -24 -4
-33 1 -24 15 18 30 -35 28 -65 -2 -33 -33 -30 -57 6 -43 22 8 27 2 18 -21 -8
-21 -21 -27 -35 -16 -36 27 -117 25 -107 -2 5 -13 22 -23 40 -21 18 1 27 -9
20 -25 -6 -16 -21 -28 -33 -28 -13 0 -9 -9 7 -20 38 -25 66 -26 51 -2 -6 10
16 40 50 65 34 26 83 66 109 89 25 23 60 48 78 54 48 19 39 52 -11 39 -30 -8
-39 -4 -29 12 8 13 10 23 4 23 -5 0 -17 -11 -25 -25z"/>
<path d="M1088 559 c55 -30 83 -36 99 -20 15 15 8 21 -23 21 -24 0 -44 9 -44
20 0 11 -25 20 -55 20 -52 0 -51 -2 23 -41z"/>
<path d="M402 553 c-27 -33 -9 -93 27 -93 45 0 93 70 67 96 -32 32 -66 30 -94
-3z"/>
<path d="M1683 419 c-39 -32 -42 -41 -16 -51 42 -16 161 55 128 76 -38 23 -60
18 -112 -25z"/>
</g>
</svg>
