<?xml version="1.0" standalone="no"?>
<!DOCTYPE svg PUBLIC "-//W3C//DTD SVG 20010904//EN"
 "http://www.w3.org/TR/2001/REC-SVG-20010904/DTD/svg10.dtd">
<svg version="1.0" xmlns="http://www.w3.org/2000/svg"
 width="300.000000pt" height="256.000000pt" viewBox="0 0 300.000000 256.000000"
 preserveAspectRatio="xMidYMid meet">
<metadata>
Created by potrace 1.10, written by Peter Selinger 2001-2011
</metadata>
<g transform="translate(0.000000,256.000000) scale(0.050000,-0.050000)"
fill="#000000" stroke="none">
<path d="M2540 4948 c-217 -58 -359 -241 -325 -419 8 -41 -1 -63 -35 -89 -54
-41 -43 -98 22 -115 39 -10 42 -20 30 -133 -30 -287 -31 -289 -89 -285 -45 3
-53 -5 -52 -52 l1 -55 -176 0 c-157 0 -210 -16 -159 -48 26 -16 2 -112 -27
-112 -32 0 -49 86 -26 128 16 29 -20 32 -363 32 -255 0 -381 -7 -381 -21 0
-12 -8 -16 -18 -10 -23 14 -44 -40 -30 -78 6 -16 24 -24 40 -18 18 8 28 -3 28
-29 0 -28 -15 -43 -45 -48 -64 -9 -64 -103 0 -112 44 -7 45 -12 45 -278 0
-221 -5 -268 -28 -260 -15 6 -52 -2 -82 -18 -30 -15 -68 -28 -84 -28 -40 0
-15 -80 41 -125 24 -19 55 -45 70 -57 68 -57 -10 -438 -90 -438 -62 0 -80 -47
-40 -108 27 -42 27 -59 2 -155 -16 -59 -29 -178 -29 -265 0 -156 -1 -160 -104
-320 -57 -89 -103 -177 -101 -197 1 -19 -7 -32 -18 -30 -17 4 -80 -136 -126
-283 -34 -107 62 28 115 161 90 230 231 430 267 378 26 -37 25 -47 -8 -96 -55
-80 -105 -195 -105 -241 0 -23 -10 -44 -22 -48 -50 -17 -31 -146 22 -146 48 0
50 5 50 120 0 142 16 174 79 159 57 -15 78 29 50 106 -18 52 -17 53 11 16 35
-45 39 -103 9 -121 -44 -28 110 -259 296 -444 113 -112 180 -195 174 -212 -18
-46 41 -81 92 -54 34 19 75 15 203 -20 126 -34 204 -42 366 -37 142 4 214 -2
235 -19 33 -27 85 -15 140 32 28 24 40 25 65 4 24 -20 43 -21 81 -3 50 23 56
36 50 126 -7 113 176 180 223 82 34 -71 84 -79 141 -21 26 25 71 57 100 70 30
14 59 46 66 71 10 42 83 108 99 91 15 -15 -348 -495 -438 -579 -104 -96 -109
-137 -16 -136 88 1 214 152 145 175 -32 11 -25 44 9 44 17 0 103 99 192 220
89 121 165 220 170 220 22 0 -19 -552 -43 -580 -86 -100 10 -294 99 -199 41
44 19 173 -33 186 -35 9 -37 14 -11 40 23 23 33 106 41 362 12 373 20 394 131
377 l74 -12 -38 43 c-45 51 22 223 87 223 18 0 53 15 78 32 79 55 93 8 40
-135 -26 -70 -44 -134 -42 -142 3 -9 -16 -11 -41 -4 -52 13 -69 -124 -21 -172
33 -33 67 -6 67 53 0 28 8 45 19 39 36 -23 202 -46 212 -29 6 9 -24 26 -65 37
-116 32 -134 49 -108 97 12 23 22 64 22 93 0 63 35 67 59 6 10 -25 37 -71 59
-104 22 -32 35 -66 30 -75 -6 -9 8 -16 30 -16 27 0 37 -10 30 -28 -6 -15 -1
-34 11 -41 30 -19 65 7 47 35 -8 13 -13 42 -10 64 5 33 2 35 -15 10 -18 -26
-20 -25 -21 5 0 19 9 35 20 35 12 0 16 20 10 45 -6 25 -2 72 9 105 16 48 19
29 15 -95 -2 -85 2 -155 10 -155 7 0 17 -16 22 -35 5 -19 10 22 12 92 1 92 9
124 27 118 15 -6 23 -37 19 -82 -3 -40 3 -73 13 -73 10 0 18 11 18 25 -3 78
10 94 105 125 55 18 100 40 100 49 0 9 25 21 55 26 30 5 98 26 150 47 l95 37
54 -54 c41 -41 47 -56 25 -63 -16 -5 -132 -44 -259 -86 -175 -58 -216 -78
-172 -83 67 -7 312 58 312 84 0 9 15 12 33 5 18 -7 64 -3 102 10 68 22 71 21
185 -92 137 -135 213 -138 86 -3 -42 46 -95 104 -117 131 l-39 47 64 -32 c36
-19 74 -51 86 -73 25 -47 85 -52 119 -11 25 30 -205 162 -243 139 -9 -6 -16 3
-16 20 0 17 -20 41 -45 54 -25 13 -71 45 -102 71 -31 26 -64 43 -73 37 -9 -6
-71 55 -137 136 -76 93 -153 164 -212 195 l-93 49 5 366 c4 302 0 370 -24 385
-20 13 -21 18 -4 19 19 0 25 63 25 250 0 235 2 250 39 250 27 0 36 10 28 30
-13 35 -70 41 -62 7 3 -12 -7 -26 -21 -31 -19 -7 -22 4 -13 42 8 33 5 52 -9
52 -25 0 -25 12 -22 -335 2 -227 -3 -265 -29 -265 -37 0 -42 -53 -6 -65 18 -6
27 -88 32 -294 7 -324 -3 -398 -48 -360 -53 44 -42 1339 12 1339 22 0 45 13
51 29 14 35 68 18 68 -21 0 -15 7 -28 15 -28 25 1 77 39 55 41 -92 8 99 36
240 35 99 0 164 -5 145 -10 -20 -5 -31 -16 -26 -25 15 -24 113 1 125 32 6 15
30 27 54 27 60 0 125 50 139 107 10 38 30 51 96 61 70 11 78 17 51 38 -24 18
-34 66 -38 187 -5 142 -10 163 -41 161 -23 -2 -35 -19 -35 -52 0 -27 -6 -42
-14 -34 -8 8 -15 43 -15 78 -1 42 -10 62 -27 59 -15 -4 -22 2 -16 12 34 54
-152 97 -493 113 -131 6 -235 3 -235 -6 0 -10 -31 -8 -70 4 -38 12 -70 34 -70
48 0 45 40 104 71 104 60 0 36 145 -31 190 -33 22 -65 56 -71 75 -19 59 -125
-34 -138 -120 -5 -37 -122 -40 -158 -5 -25 24 6 65 39 52 67 -26 126 62 66 99
-13 8 -16 49 -8 111 9 66 7 98 -8 98 -12 0 -22 17 -22 38 0 21 -13 43 -30 49
-16 7 -30 31 -30 54 0 24 -9 36 -21 28 -12 -7 -37 1 -56 18 -97 88 -495 216
-575 185 -16 -6 -28 -2 -28 9 0 30 -376 20 -500 -13z m1334 -828 c-6 -22 -2
-45 8 -51 10 -6 18 -43 18 -81 l0 -70 -115 6 -115 6 7 100 c9 130 10 130 117
130 81 0 90 -4 80 -40z m340 -394 c26 -20 27 -32 4 -82 -22 -51 -30 -55 -53
-31 -26 25 -26 49 -3 197 1 11 7 2 12 -20 5 -22 23 -51 40 -64z m-1559 60
c-54 -9 -79 -46 -30 -46 17 -1 15 -7 -5 -20 -27 -17 -27 -19 0 -20 24 0 25 -4
3 -18 -19 -12 -21 -21 -5 -31 12 -7 31 -8 42 -1 11 7 20 4 20 -7 0 -31 54 -42
119 -23 37 10 61 10 61 -1 0 -11 9 -19 20 -19 37 0 21 44 -20 54 -22 6 -40 22
-40 37 0 14 -16 30 -35 35 -26 7 -24 10 10 12 25 1 46 -9 47 -23 1 -20 3 -20
11 0 6 14 23 25 39 25 15 0 28 10 28 22 0 33 195 5 374 -54 82 -27 160 -42
172 -35 13 7 17 6 9 -3 -8 -9 21 -42 64 -74 96 -70 88 -104 -24 -112 -47 -3
-105 -19 -130 -36 -26 -16 -55 -24 -65 -18 -29 18 -138 34 -250 37 -55 1 -105
10 -111 18 -7 9 -34 20 -60 25 -27 5 -59 23 -71 40 -27 36 -57 41 -35 5 11
-19 7 -19 -17 1 -18 14 -39 24 -49 22 -9 -3 -30 1 -47 8 -16 6 -70 16 -120 21
-144 15 -169 21 -193 52 -13 17 -53 28 -95 27 -39 -1 -72 1 -72 5 0 20 127 71
152 61 15 -6 28 -2 28 9 0 10 10 19 21 19 12 0 17 -7 12 -16 -6 -8 14 -14 44
-13 31 2 59 -10 68 -29 9 -19 11 -10 5 23 -11 54 -9 55 85 52 58 -2 74 -6 40
-11z m245 -366 c0 -33 14 -40 85 -42 81 -3 82 -3 25 -19 -37 -11 17 -14 144
-8 112 6 231 20 266 32 34 12 67 17 73 11 22 -22 -166 -58 -371 -71 -139 -9
-212 -21 -217 -38 -9 -28 182 -32 380 -7 107 13 118 11 146 -32 16 -25 47 -46
67 -46 20 0 48 -13 62 -30 19 -22 68 -30 192 -30 l168 0 0 -666 0 -666 -128
-125 -128 -125 9 156 c7 98 -1 206 -19 289 -24 115 -24 138 -1 162 36 36 14
95 -35 95 -24 0 -48 26 -68 74 -50 118 -179 275 -308 375 -72 55 -122 109
-126 136 -4 34 -19 45 -60 45 -30 0 -65 11 -79 25 -30 30 -110 33 -127 5 -18
-30 -136 -24 -241 11 -51 18 -106 27 -122 21 -24 -9 -27 22 -23 192 l6 203 53
2 c30 1 50 -3 46 -10 -10 -17 270 -67 286 -51 6 7 -5 12 -25 12 -20 0 -30 7
-22 15 8 8 -24 26 -71 40 l-87 25 76 -9 c97 -11 134 3 134 51 0 21 9 38 20 38
11 0 20 -18 20 -40z m1290 -69 c2 -44 -5 -71 -20 -71 -20 0 -24 65 -11 158 5
34 27 -30 31 -87z m-2460 -201 c0 -95 -3 -100 -56 -106 l-57 -7 42 42 c49 49
53 93 8 117 -40 23 -17 69 30 60 25 -5 33 -29 33 -106z m2160 22 c22 -4 -21
-8 -95 -9 -74 -2 -135 4 -135 12 0 14 135 12 230 -3z m-1796 -313 c47 -11 117
-42 158 -69 40 -27 81 -45 90 -39 95 59 496 -424 528 -637 7 -44 32 -93 58
-116 86 -75 55 -688 -41 -799 -14 -18 -32 -63 -40 -100 -18 -100 -167 -299
-290 -391 -141 -106 -248 -170 -261 -157 -6 6 -57 -8 -113 -30 -120 -47 -305
-33 -511 38 -777 269 -1063 1271 -555 1948 83 110 288 273 344 273 20 0 44 12
53 26 50 84 331 109 580 53z m-1083 -301 c8 -12 -5 -41 -29 -64 l-42 -43 0 65
c0 64 42 89 71 42z m2577 -483 c25 -93 34 -367 13 -425 -21 -60 -21 -60 -11
12 10 67 -8 239 -41 393 -16 74 19 92 39 20z m427 -190 c-5 -41 -8 -7 -8 75 0
83 3 116 8 75 4 -41 4 -109 0 -150z m-486 85 c9 -51 7 -73 -5 -60 -11 11 -25
56 -33 100 -9 51 -7 73 5 60 11 -11 25 -56 33 -100z m536 -333 c-18 -18 -17
-29 4 -45 29 -24 56 -371 32 -411 -8 -12 -30 -16 -49 -9 -59 23 -36 488 24
488 7 0 2 -10 -11 -23z m-145 -65 c0 -47 -13 -76 -45 -98 l-45 -31 45 11 c42
10 45 4 45 -92 0 -115 -4 -118 -95 -62 -67 41 -87 107 -38 126 16 6 34 34 41
62 39 157 92 205 92 84z m-113 -43 c-29 -84 -130 -173 -161 -141 -14 13 127
206 160 219 13 5 26 11 28 11 2 1 -10 -39 -27 -89z m546 -26 c53 -43 122 -104
152 -137 l56 -59 -46 -23 c-80 -40 -293 -124 -314 -124 -32 0 -28 394 4 407
43 17 49 15 148 -64z m-433 -417 l0 -113 -80 132 c-44 73 -80 142 -80 154 0
12 35 4 80 -19 79 -40 80 -42 80 -154z"/>
<path d="M900 3080 c0 -33 9 -60 20 -60 11 0 20 27 20 60 0 33 -9 60 -20 60
-11 0 -20 -27 -20 -60z"/>
<path d="M312 709 c-19 -62 -30 -118 -24 -124 7 -6 12 3 12 22 0 18 9 33 20
33 11 0 18 7 17 15 -2 8 8 40 23 71 18 36 20 62 7 75 -13 13 -32 -19 -55 -92z"/>
<path d="M4050 740 c-13 -61 -1 -100 31 -100 11 0 19 36 19 80 0 94 -31 106
-50 20z"/>
<path d="M5147 704 c39 -41 87 -94 107 -118 20 -24 63 -50 96 -58 l60 -14 -50
56 c-27 30 -81 68 -118 84 -52 22 -62 34 -41 47 39 24 -1 64 -72 71 l-52 6 70
-74z"/>
<path d="M190 493 c-48 -74 -32 -122 44 -129 55 -6 136 113 100 148 -35 36
-115 25 -144 -19z"/>
<path d="M5404 460 c-41 -67 20 -140 117 -140 110 0 119 36 29 114 -89 77
-111 81 -146 26z"/>
</g>
</svg>
