<?xml version="1.0" encoding="iso-8859-1"?>
<!-- Generator: Adobe Illustrator 19.0.0, SVG Export Plug-In . SVG Version: 6.00 Build 0)  -->
<svg version="1.1" id="Layer_1" xmlns="http://www.w3.org/2000/svg" xmlns:xlink="http://www.w3.org/1999/xlink" x="0px" y="0px"
	 viewBox="0 0 512 512" style="enable-background:new 0 0 512 512;" xml:space="preserve">
<circle style="fill:#34495E;" cx="256" cy="256" r="256"/>
<path style="fill:#203549;" d="M291.776,509.458c108.984-15.247,195.922-99.075,215.849-206.487L348.68,144.049
	c-1.057-1.06-2.424-1.595-3.794-1.595h-40.276l-20.713-20.71c-1.674-1.72-3.971-2.647-6.354-2.647h-43.059
	c-2.427,0-4.677,0.927-6.356,2.647c-1.723,1.679-2.652,3.932-2.652,6.362v7.15h-8.965v5.212v1.987h-49.37
	c-1.416,0-2.742,0.532-3.845,1.595c-1.014,1.014-1.546,2.427-1.546,3.791v3.581h-0.881c-0.927,0-1.856,0.351-2.56,1.057
	c-0.709,0.707-1.062,1.633-1.062,2.519v26.934l9.009,9.011v185.828c0,1.812,0.707,3.622,2.033,5.036l0.041,0.043l0.046,0.051
	l6.843,6.84l2.086,2.084l-2.079,2.084L291.776,509.458z"/>
<path style="fill:#F2F9FF;" d="M166.239,376.742c0,1.841,0.707,3.674,2.107,5.076c1.4,1.398,3.228,2.099,5.071,2.099h165.176
	c1.841,0,3.681-0.701,5.077-2.099c1.4-1.405,2.112-3.238,2.112-5.076V181.939H166.239V376.742z"/>
<rect x="175.232" y="383.923" style="fill:#B8D1E6;" width="161.562" height="8.975"/>
<path style="fill:#F2F9FF;" d="M354.744,181.939H157.256v-26.931c0-0.916,0.358-1.836,1.06-2.54
	c0.699-0.701,1.623-1.047,2.529-1.047h190.326c0.911,0,1.828,0.343,2.532,1.047c0.704,0.704,1.042,1.623,1.042,2.54L354.744,181.939
	L354.744,181.939z"/>
<path style="fill:#CEE2F2;" d="M350.272,151.424H161.743v-3.597c0-1.385,0.527-2.76,1.574-3.807
	c1.073-1.055,2.429-1.577,3.827-1.577h177.733c1.382,0,2.757,0.522,3.807,1.577c1.06,1.047,1.587,2.422,1.587,3.807V151.424z"/>
<path style="fill:#F2F9FF;" d="M295.514,142.446h-16.169v-14.359c0-0.282-0.059-0.814-0.525-1.272
	c-0.451-0.468-0.986-0.527-1.262-0.527h-43.095c-0.276,0-0.819,0.059-1.267,0.527c-0.461,0.456-0.54,0.991-0.54,1.272v14.359
	h-16.146v-7.188h8.978v-7.171c0-2.401,0.932-4.659,2.632-6.351c1.69-1.7,3.94-2.629,6.346-2.629h43.092
	c2.391,0,4.644,0.929,6.339,2.629c1.695,1.692,2.644,3.95,2.644,6.351v7.171h8.975v7.188H295.514z"/>
<g>
	<path style="fill:#B8D1E6;" d="M192.714,199.887v151.718c0,1.377,0.532,2.752,1.587,3.807c1.039,1.052,2.424,1.58,3.791,1.58
		c1.4,0,2.767-0.527,3.822-1.58c1.055-1.055,1.572-2.429,1.572-3.807V199.887H192.714z"/>
	<path style="fill:#B8D1E6;" d="M231.324,199.887v151.718c0,1.377,0.525,2.752,1.577,3.807c1.06,1.052,2.429,1.58,3.807,1.58
		c1.37,0,2.752-0.527,3.807-1.58c1.047-1.055,1.574-2.429,1.574-3.807V199.887H231.324z"/>
	<path style="fill:#B8D1E6;" d="M269.926,199.887v151.718c0,1.377,0.522,2.752,1.582,3.807c1.047,1.052,2.411,1.58,3.789,1.58
		c1.39,0,2.76-0.527,3.817-1.58c1.06-1.055,1.574-2.429,1.574-3.807V199.887H269.926z"/>
	<path style="fill:#B8D1E6;" d="M308.513,199.887v151.718c0,1.377,0.538,2.752,1.579,3.807c1.057,1.052,2.429,1.58,3.822,1.58
		c1.367,0,2.749-0.527,3.804-1.58c1.052-1.055,1.572-2.429,1.572-3.807V199.887H308.513z"/>
</g>
<rect x="166.239" y="181.939" style="fill:#CEE2F2;" width="179.558" height="7.68"/>
<g>
</g>
<g>
</g>
<g>
</g>
<g>
</g>
<g>
</g>
<g>
</g>
<g>
</g>
<g>
</g>
<g>
</g>
<g>
</g>
<g>
</g>
<g>
</g>
<g>
</g>
<g>
</g>
<g>
</g>
</svg>
