<?xml version="1.0" encoding="iso-8859-1"?>
<!-- Generator: Adobe Illustrator 19.0.0, SVG Export Plug-In . SVG Version: 6.00 Build 0)  -->
<svg xmlns="http://www.w3.org/2000/svg" xmlns:xlink="http://www.w3.org/1999/xlink" version="1.1" id="Layer_1" x="0px" y="0px" viewBox="0 0 512 512" style="enable-background:new 0 0 512 512;" xml:space="preserve" width="512px" height="512px">
<g>
	<g>
		<path d="M0,344.976v156.098h512V344.976H0z M118.634,463.61H37.463v-81.171h81.171V463.61z M237.268,463.61h-81.171v-81.171    h81.171V463.61z M355.902,463.61h-81.171v-81.171h81.171V463.61z M474.537,463.61h-81.171v-81.171h81.171V463.61z" fill="#006DF0"/>
	</g>
</g>
<g>
	<g>
		<rect y="274.732" width="512" height="37.463" fill="#006DF0"/>
	</g>
</g>
<g>
	<g>
		<path d="M0,81.171v156.098h512V81.171H0z M118.634,199.805H37.463v-81.171h81.171V199.805z M237.268,199.805h-81.171v-81.171    h81.171V199.805z M355.902,199.805h-81.171v-81.171h81.171V199.805z M474.537,199.805h-81.171v-81.171h81.171V199.805z" fill="#006DF0"/>
	</g>
</g>
<g>
	<g>
		<rect y="10.927" width="512" height="37.463" fill="#006DF0"/>
	</g>
</g>
<g>
</g>
<g>
</g>
<g>
</g>
<g>
</g>
<g>
</g>
<g>
</g>
<g>
</g>
<g>
</g>
<g>
</g>
<g>
</g>
<g>
</g>
<g>
</g>
<g>
</g>
<g>
</g>
<g>
</g>
</svg>
