<?xml version="1.0" standalone="no"?>
<!DOCTYPE svg PUBLIC "-//W3C//DTD SVG 20010904//EN"
 "http://www.w3.org/TR/2001/REC-SVG-20010904/DTD/svg10.dtd">
<svg version="1.0" xmlns="http://www.w3.org/2000/svg"
 width="36.000000pt" height="34.000000pt" viewBox="0 0 36.000000 34.000000"
 preserveAspectRatio="xMidYMid meet">
<metadata>
Created by potrace 1.10, written by Peter Selinger 2001-2011
</metadata>
<g transform="translate(0.000000,34.000000) scale(0.100000,-0.100000)"
 stroke="none">
<path d="M176 325 c-3 -8 -14 -15 -24 -15 -10 0 -22 -3 -26 -7 -4 -5 -13 -8
-19 -8 -7 0 -13 -15 -15 -32 -2 -19 1 -33 8 -33 7 0 8 -6 0 -19 -13 -26 -13
-34 2 -25 7 4 8 3 4 -5 -4 -6 -12 -9 -17 -5 -13 8 -42 -65 -35 -91 12 -46 76
-101 76 -65 0 6 -9 10 -21 10 -15 0 -19 5 -15 16 3 9 2 12 -5 9 -7 -5 -9 11
-7 48 1 30 6 53 10 51 14 -9 28 36 25 82 -2 44 0 48 29 60 31 13 31 12 32 -18
0 -21 -7 -37 -26 -53 -23 -20 -24 -25 -13 -39 15 -18 77 -22 101 -6 12 9 9 15
-20 40 -19 16 -31 30 -27 30 4 0 17 -9 29 -20 12 -11 24 -18 27 -15 2 3 -5 14
-17 25 -29 27 -28 30 8 30 21 0 30 -5 30 -16 0 -8 -4 -13 -8 -10 -15 9 -7 -39
9 -57 10 -11 14 -27 11 -39 -4 -16 -2 -19 8 -13 9 6 11 4 5 -6 -13 -20 -13
-49 -1 -49 6 0 3 -5 -6 -11 -10 -5 -18 -17 -18 -24 0 -18 -21 -20 -37 -4 -9 9
-12 7 -10 -10 3 -47 79 -1 94 57 4 17 -2 40 -18 71 -16 31 -23 58 -21 83 3 35
2 37 -30 40 -28 2 -34 7 -36 31 -4 29 -26 37 -36 12z m34 -115 c11 -7 5 -10
-22 -10 -21 0 -38 5 -38 10 0 13 40 13 60 0z m3 -27 c-13 -2 -33 -2 -45 0 -13
2 -3 4 22 4 25 0 35 -2 23 -4z"/>
<path d="M145 99 c-24 -5 -20 -7 20 -7 28 0 64 4 80 8 25 7 22 8 -20 7 -27 -1
-63 -4 -80 -8z"/>
<path d="M179 54 c-16 -19 -21 -44 -8 -44 5 0 9 9 9 19 0 11 4 22 9 25 4 3 6
-6 3 -19 -2 -15 0 -25 7 -25 6 0 11 13 11 30 0 33 -11 38 -31 14z"/>
</g>
</svg>
