<?xml version="1.0" standalone="no"?>
<!DOCTYPE svg PUBLIC "-//W3C//DTD SVG 20010904//EN"
 "http://www.w3.org/TR/2001/REC-SVG-20010904/DTD/svg10.dtd">
<svg version="1.0" xmlns="http://www.w3.org/2000/svg"
 width="100.000000pt" height="100.000000pt" viewBox="0 0 100.000000 100.000000"
 preserveAspectRatio="xMidYMid meet">
<metadata>
Created by potrace 1.10, written by Peter Selinger 2001-2011
</metadata>
<g transform="translate(0.000000,100.000000) scale(0.100000,-0.100000)"
fill="#a48123" stroke="none">
<path d="M460 965 c0 -19 5 -35 10 -35 6 0 10 16 10 35 0 19 -4 35 -10 35 -5
0 -10 -16 -10 -35z"/>
<path d="M504 840 c0 -91 2 -128 3 -82 2 45 2 119 0 165 -1 45 -3 8 -3 -83z"/>
<path d="M522 838 l2 -163 6 125 5 125 14 -85 c17 -105 19 -132 20 -245 l1
-91 56 -12 c63 -13 94 -4 94 28 0 30 -85 185 -101 185 -15 0 -19 39 -7 67 6
13 3 17 -15 20 -12 2 -22 8 -23 13 0 6 -3 17 -7 25 -4 12 -16 122 -17 163 0 4
-7 7 -15 7 -13 0 -15 -24 -13 -162z m108 -190 c0 -5 9 -23 20 -38 11 -16 27
-45 35 -64 15 -35 15 -36 -7 -32 -13 3 -28 5 -35 5 -28 2 -43 33 -43 91 0 49
3 58 15 54 8 -4 15 -11 15 -16z"/>
<path d="M396 929 c2 -4 -12 -10 -32 -13 -44 -9 -111 -68 -119 -107 -4 -19 2
-56 20 -109 16 -48 24 -91 21 -105 -3 -13 -28 -49 -55 -80 -74 -84 -94 -134
-89 -220 7 -147 98 -233 285 -270 l31 -6 -8 36 c-5 20 -12 40 -16 43 -4 4 -4
-1 -1 -10 5 -14 1 -18 -18 -18 -13 0 -26 4 -30 10 -3 5 -13 6 -21 3 -9 -3 -19
-1 -23 6 -4 7 -18 13 -29 14 -12 1 -22 5 -22 9 0 10 -25 35 -64 66 -24 18 -26
22 -10 23 14 0 15 2 4 6 -8 4 -20 11 -26 17 -15 16 -24 66 -11 66 8 0 8 3 0
11 -13 13 -2 58 22 96 9 13 13 28 10 33 -4 6 1 7 11 3 12 -4 15 -3 10 5 -4 6
2 20 14 32 11 11 18 20 15 20 -2 0 11 16 30 35 29 29 34 39 29 65 -4 20 -3 30
5 30 7 0 9 5 6 10 -3 6 0 10 7 11 7 0 3 4 -8 9 -16 6 -23 21 -29 57 -4 26 -10
53 -14 58 -16 23 10 85 36 85 7 0 13 5 13 10 0 6 8 10 18 10 10 0 23 5 29 11
7 7 18 9 25 7 7 -3 17 -6 22 -6 5 0 12 -5 15 -11 4 -6 7 5 7 23 0 31 -3 35
-32 38 -18 2 -31 1 -28 -3z"/>
<path d="M471 818 c0 -33 3 -58 9 -58 12 0 12 20 1 75 -9 40 -9 39 -10 -17z"/>
<path d="M452 764 c-2 -64 0 -72 18 -77 17 -4 20 0 20 29 0 19 -4 34 -10 34
-5 0 -7 -7 -4 -15 3 -8 2 -20 -3 -27 -5 -8 -10 14 -14 57 l-5 70 -2 -71z"/>
<path d="M630 810 c-30 -4 -46 -7 -34 -8 28 -3 44 -21 44 -53 0 -15 4 -30 8
-33 5 -3 6 8 4 24 -5 33 19 50 46 34 16 -10 26 -44 13 -44 -4 0 -7 -10 -8 -21
-1 -12 -9 -29 -18 -39 -15 -17 -15 -21 10 -59 25 -41 51 -136 34 -125 -5 3 -9
0 -9 -5 0 -6 11 -11 24 -11 14 0 28 -4 31 -10 3 -5 0 -10 -7 -10 -9 0 -9 -3
-2 -8 27 -17 46 -75 46 -137 1 -72 -2 -85 -18 -85 -8 0 -12 -4 -9 -10 3 -5 1
-10 -6 -10 -8 0 -8 -4 1 -15 7 -8 9 -15 4 -15 -5 0 -24 -13 -43 -29 -19 -17
-38 -28 -43 -25 -4 3 -11 -2 -14 -11 -4 -8 -11 -15 -18 -14 -6 1 -24 -3 -39
-9 -16 -7 -37 -12 -48 -12 -17 0 -20 5 -15 27 17 86 18 103 6 103 -7 0 -10 -6
-7 -12 2 -7 -2 -47 -9 -88 -7 -41 -11 -76 -10 -78 9 -8 120 25 169 51 96 50
149 135 149 238 0 71 -24 125 -88 203 -31 37 -44 61 -36 63 6 3 12 9 12 14 0
4 -6 6 -14 3 -24 -9 -24 32 1 105 24 67 24 73 9 96 -17 26 -21 27 -116 15z"/>
<path d="M331 524 c-23 -30 -28 -44 -34 -116 -5 -54 -25 -88 -38 -66 -7 10
-11 10 -21 0 -19 -19 4 -37 31 -23 32 18 60 82 59 136 -1 46 11 70 35 70 17 0
21 19 4 23 -8 2 -24 -9 -36 -24z"/>
<path d="M676 445 c-12 -46 60 -153 85 -128 16 16 1 37 -16 23 -20 -16 -38 23
-39 82 -1 52 -19 66 -30 23z"/>
<path d="M410 425 c0 -8 9 -15 20 -15 11 0 20 7 20 15 0 8 -9 15 -20 15 -11 0
-20 -7 -20 -15z"/>
<path d="M460 421 c0 -13 6 -18 18 -16 9 2 47 4 85 4 52 1 67 4 67 16 0 12
-16 15 -85 15 -77 0 -85 -2 -85 -19z"/>
<path d="M630 320 c-10 -19 -8 -21 24 -18 39 2 43 7 24 26 -18 18 -36 15 -48
-8z"/>
<path d="M496 272 c-65 -3 -68 -4 -61 -25 4 -12 10 -38 15 -57 7 -32 8 -32 9
-7 1 22 6 27 29 29 15 1 35 2 44 2 25 2 40 20 36 42 -3 17 -11 19 -72 16z"/>
<path d="M693 206 c-15 -18 2 -35 28 -29 15 4 16 9 8 24 -11 22 -20 23 -36 5z"/>
<path d="M532 137 c-2 -49 -18 -77 -42 -77 -17 0 -20 7 -20 46 0 25 -4 43 -9
40 -13 -8 0 -110 16 -122 7 -7 23 -10 33 -7 21 6 35 64 27 123 l-4 35 -1 -38z"/>
</g>
</svg>
