<?xml version="1.0" standalone="no"?>
<!DOCTYPE svg PUBLIC "-//W3C//DTD SVG 20010904//EN"
 "http://www.w3.org/TR/2001/REC-SVG-20010904/DTD/svg10.dtd">
<svg version="1.0" xmlns="http://www.w3.org/2000/svg"
 width="60.000000pt" height="75.000000pt" viewBox="0 0 60.000000 75.000000"
 preserveAspectRatio="xMidYMid meet">
<metadata>
Created by potrace 1.10, written by Peter Selinger 2001-2011
</metadata>
<g transform="translate(0.000000,75.000000) scale(0.100000,-0.100000)"
 stroke="none">
<path d="M78 729 c-24 -14 -23 -26 7 -52 l26 -22 -33 -97 c-20 -59 -39 -98
-49 -101 -25 -7 -8 -133 24 -180 22 -33 33 -95 39 -222 0 -15 18 -45 26 -45 4
0 6 48 4 107 -3 81 -7 110 -18 116 -8 4 -14 14 -14 21 0 7 -8 24 -19 37 -11
14 -21 50 -26 87 -6 57 -5 62 11 55 12 -4 15 -3 10 5 -5 8 -2 10 8 6 8 -3 25
1 38 10 12 9 35 16 50 16 15 0 30 5 33 10 4 6 28 7 62 3 51 -6 56 -4 50 11 -4
10 -7 25 -7 34 0 10 -10 22 -22 27 -13 6 -22 16 -21 23 2 7 -4 9 -15 5 -9 -3
-14 -3 -10 2 4 4 3 16 -3 27 -10 19 -10 19 15 3 14 -10 26 -24 26 -31 0 -8 3
-15 8 -15 14 -3 47 -9 79 -15 22 -4 40 -18 59 -45 26 -37 43 -47 57 -32 4 3
-5 15 -20 25 -16 9 -30 28 -33 40 -4 17 -15 24 -41 29 -19 3 -66 27 -104 54
-38 28 -65 43 -61 35 5 -8 -2 -3 -15 11 -26 29 -82 69 -96 69 -4 0 -16 -5 -25
-11z m37 -29 c3 -5 2 -10 -4 -10 -5 0 -13 5 -16 10 -3 6 -2 10 4 10 5 0 13 -4
16 -10z m65 -54 c0 -7 14 -33 30 -60 l30 -47 -46 31 c-48 33 -68 67 -52 87 6
7 5 14 -2 18 -5 3 -10 1 -10 -5 0 -6 -5 -8 -11 -4 -8 4 -7 9 2 14 14 10 59
-16 59 -34z m-26 -71 c18 -13 53 -34 79 -45 26 -12 47 -23 47 -26 0 -3 -5 -2
-11 2 -22 13 -157 -7 -180 -27 -12 -10 -24 -18 -25 -16 -2 1 9 41 24 89 15 47
28 78 30 67 2 -10 18 -30 36 -44z"/>
<path d="M475 470 c-3 -5 -16 -10 -28 -9 -12 0 -71 -10 -132 -21 -60 -11 -133
-22 -161 -23 -29 -1 -47 -5 -42 -8 6 -4 7 -12 4 -18 -4 -6 -3 -11 2 -11 6 0
12 -20 14 -45 2 -25 0 -45 -3 -45 -9 0 1 -72 12 -86 7 -9 28 -5 86 17 42 16
78 27 80 25 2 -1 -1 -27 -7 -56 -7 -38 -7 -57 1 -66 12 -14 33 -9 24 5 -2 5 8
7 24 6 27 -2 29 -1 20 22 -5 13 -9 44 -9 67 0 41 1 43 41 55 23 7 48 15 56 18
12 5 14 -3 12 -41 -4 -66 17 -83 26 -20 10 76 13 80 55 93 45 13 54 43 20 61
-21 11 -29 70 -9 70 5 0 7 5 4 10 -8 13 -82 13 -90 0z m61 -26 c-3 -9 -6 -21
-6 -27 0 -18 -37 -32 -184 -68 -74 -18 -133 -36 -130 -40 2 -4 -6 -5 -18 -1
-13 3 -19 1 -15 -5 4 -6 -3 -8 -16 -6 -19 4 -24 12 -25 44 -2 31 1 39 15 40
16 0 15 1 -2 8 -23 9 -13 12 110 30 77 11 124 19 200 31 76 12 78 12 71 -6z
m29 -82 c-6 -5 -95 -34 -198 -66 -135 -40 -192 -54 -201 -47 -7 6 -15 9 -17 6
-3 -2 -5 4 -5 15 0 16 3 16 19 5 22 -15 50 -9 40 9 -4 6 1 5 10 -3 16 -13 22
-8 17 14 -1 6 4 5 11 -2 14 -14 42 -5 32 11 -4 7 -2 7 8 -1 12 -10 18 -10 27
-1 7 7 12 8 12 4 0 -5 7 -3 15 4 8 7 15 10 15 8 0 -3 42 7 93 23 93 28 139 36
122 21z m-229 -190 c-11 -10 -13 3 -7 48 l6 45 3 -44 c2 -23 1 -46 -2 -49z"/>
<path d="M188 393 c7 -3 16 -2 19 1 4 3 -2 6 -13 5 -11 0 -14 -3 -6 -6z"/>
<path d="M250 458 c-142 -17 -154 -20 -140 -28 25 -15 230 18 209 33 -2 2 -33
0 -69 -5z"/>
<path d="M348 463 c6 -2 18 -2 25 0 6 3 1 5 -13 5 -14 0 -19 -2 -12 -5z"/>
<path d="M101 304 c0 -11 3 -14 6 -6 3 7 2 16 -1 19 -3 4 -6 -2 -5 -13z"/>
</g>
</svg>
