<?xml version="1.0" standalone="no"?>
<!DOCTYPE svg PUBLIC "-//W3C//DTD SVG 20010904//EN"
 "http://www.w3.org/TR/2001/REC-SVG-20010904/DTD/svg10.dtd">
<svg version="1.0" xmlns="http://www.w3.org/2000/svg"
 width="90.000000pt" height="90.000000pt" viewBox="0 0 90.000000 90.000000"
 preserveAspectRatio="xMidYMid meet">
<metadata>
Created by potrace 1.10, written by Peter Selinger 2001-2011
</metadata>
<g transform="translate(0.000000,90.000000) scale(0.100000,-0.100000)"
fill="#00ff03" stroke="none">
<path d="M289 871 c13 -18 29 -28 46 -28 32 0 40 11 20 27 -13 11 -18 10 -30
-6 -12 -15 -14 -15 -9 -2 3 10 -2 20 -15 27 -31 17 -34 13 -12 -18z"/>
<path d="M374 839 c-2 -4 9 -16 26 -25 34 -21 45 -41 30 -59 -5 -6 -7 -15 -3
-18 3 -4 2 -7 -4 -7 -10 0 -21 -39 -29 -99 -2 -13 -8 -27 -15 -31 -6 -4 -9
-14 -7 -21 3 -8 -1 -26 -8 -41 -8 -15 -13 -31 -12 -35 0 -4 -4 -21 -11 -38 -7
-16 -13 -40 -13 -52 0 -12 -7 -24 -15 -27 -8 -4 -13 -13 -9 -21 3 -8 1 -15 -5
-15 -6 0 -10 -8 -9 -17 3 -22 -10 -63 -19 -63 -4 0 -7 -8 -7 -17 0 -10 -4 -42
-8 -71 -5 -34 -4 -52 2 -52 16 0 24 18 12 25 -16 10 -12 25 5 19 8 -4 15 -1
15 5 0 6 -4 11 -10 11 -5 0 -10 5 -10 11 0 5 5 7 10 4 6 -3 10 -1 10 4 0 6 -4
11 -10 11 -5 0 -10 4 -10 9 0 5 9 7 20 4 22 -6 22 -7 -2 -85 -6 -20 -7 -45 -3
-55 5 -10 7 -24 6 -30 -1 -7 6 -13 17 -13 20 0 42 18 42 34 0 6 -7 2 -16 -9
-12 -16 -16 -17 -23 -6 -6 9 -4 20 5 29 9 8 13 21 10 28 -4 10 2 13 19 12 25
-2 32 -12 16 -22 -5 -4 -12 0 -14 6 -4 9 -6 8 -6 -2 -1 -8 7 -20 18 -27 15
-10 18 -9 17 4 0 9 5 18 13 21 8 3 11 0 7 -7 -4 -6 -2 -11 3 -11 6 0 11 7 11
15 0 8 -7 15 -15 15 -9 0 -18 7 -22 16 -3 8 -12 13 -19 10 -7 -3 -16 0 -20 6
-4 7 -3 8 4 4 8 -4 12 0 12 11 0 15 2 16 11 3 9 -12 10 -12 5 4 -4 10 1 30 9
43 14 20 14 27 3 41 -11 13 -11 15 2 7 8 -4 12 -5 8 0 -4 4 -3 14 3 22 9 10 8
13 -2 13 -25 0 -37 15 -44 54 -6 29 -5 37 4 31 9 -5 12 -1 11 11 -4 37 0 65 9
60 5 -3 9 0 8 7 -1 42 4 59 17 54 10 -4 12 0 9 14 -3 11 -9 22 -14 25 -12 7
-12 24 0 24 5 0 14 -13 19 -30 8 -23 7 -36 -4 -57 -8 -16 -13 -39 -11 -53 2
-14 2 -19 0 -12 -3 6 -9 12 -14 12 -6 0 -7 -5 -4 -10 4 -6 -1 -25 -10 -42 -9
-19 -12 -34 -6 -36 5 -2 7 -10 4 -18 -3 -8 0 -14 7 -14 8 0 11 9 8 25 -3 14
-1 23 6 22 6 -1 10 4 8 11 -1 6 2 12 8 12 5 0 10 -7 10 -15 0 -8 -5 -15 -12
-15 -6 0 -8 -3 -5 -6 3 -4 2 -15 -4 -25 -8 -16 -6 -19 10 -19 18 0 19 -3 10
-26 -16 -45 -3 -38 20 10 25 51 45 71 61 61 8 -5 5 -14 -8 -29 -37 -40 -62
-97 -51 -118 8 -14 4 -24 -16 -44 -15 -14 -24 -29 -21 -31 3 -3 14 5 25 18 11
13 23 20 27 16 5 -4 2 -12 -5 -16 -7 -5 -15 -26 -17 -47 -2 -20 -8 -42 -14
-48 -8 -8 -9 -5 -4 9 8 21 6 21 -16 -9 -10 -13 -10 -17 -2 -12 6 4 12 2 12 -3
0 -6 -7 -11 -15 -11 -8 0 -15 -5 -15 -11 0 -7 -10 -9 -27 -4 -40 9 -75 34 -67
47 5 7 2 8 -6 3 -10 -6 -11 -2 -7 17 5 19 2 28 -9 32 -12 5 -14 1 -9 -17 5
-19 4 -20 -5 -4 -6 9 -8 22 -5 27 3 6 1 10 -4 10 -6 0 -11 -18 -11 -40 0 -30
4 -40 16 -40 9 0 27 -11 40 -25 28 -30 96 -35 125 -9 10 9 34 65 54 125 39
117 68 164 93 154 9 -3 -6 19 -34 49 -44 48 -76 73 -59 46 8 -13 -26 -70 -41
-70 -8 0 -7 12 3 43 34 96 34 98 7 91 -15 -4 -24 -2 -24 6 0 6 4 8 10 5 6 -3
7 1 4 9 -3 9 -1 16 5 16 6 0 11 -6 11 -12 0 -9 4 -8 10 2 5 8 10 20 10 25 0 6
-5 3 -10 -5 -8 -12 -10 -11 -10 8 0 13 -7 37 -16 53 -16 32 -14 46 5 34 6 -3
9 -11 6 -16 -4 -5 0 -18 8 -30 9 -12 18 -16 21 -10 4 5 2 12 -3 15 -5 3 -5 26
1 53 5 27 10 58 10 71 0 12 4 22 8 22 4 0 8 10 7 23 0 12 3 29 7 38 7 17 -34
69 -54 69 -18 0 -10 -17 14 -30 16 -8 22 -18 19 -28 -5 -11 -2 -13 6 -7 10 6
10 2 0 -16 -13 -23 -15 -29 -18 -56 0 -7 -8 -10 -17 -6 -12 4 -13 8 -3 13 6 5
9 15 6 24 -4 9 -2 15 5 13 21 -4 18 21 -7 51 -14 16 -25 34 -25 39 0 12 -29
13 -36 2z m71 -187 c-2 -9 -4 -23 -4 -29 -1 -20 -19 -15 -26 7 -3 11 0 26 7
34 16 17 27 12 23 -12z m-15 -216 c0 -8 -4 -17 -9 -21 -6 -3 -9 4 -8 15 1 23
17 28 17 6z m-90 -88 c0 -5 -4 -7 -9 -5 -9 2 -11 -3 -11 -25 0 -10 2 -10 8 -1
5 8 14 6 32 -9 18 -14 20 -18 6 -14 -13 5 -17 2 -13 -8 3 -8 -1 -20 -8 -26 -8
-7 -12 -17 -9 -22 4 -6 10 -6 17 1 18 18 28 12 15 -8 -6 -10 -17 -17 -24 -14
-6 2 -15 0 -19 -6 -3 -6 -1 -11 4 -11 6 0 11 -5 11 -12 0 -6 -3 -8 -7 -4 -4 3
-15 -17 -24 -46 -12 -38 -17 -46 -18 -28 -1 15 4 31 9 36 6 6 12 28 14 50 1
21 8 49 14 61 20 37 13 50 -8 16 -24 -40 -30 -41 -24 -5 3 15 6 38 8 52 2 14
5 26 6 28 2 2 6 14 9 30 2 8 21 -19 21 -30z m162 -42 c-11 -11 -25 -41 -32
-65 -9 -33 -14 -41 -21 -30 -12 19 -12 59 0 59 5 0 13 9 16 20 9 27 34 52 47
44 5 -4 1 -15 -10 -28z"/>
<path d="M400 241 c0 -6 4 -12 8 -15 5 -3 9 1 9 9 0 8 -4 15 -9 15 -4 0 -8 -4
-8 -9z"/>
<path d="M387 213 c-4 -3 -7 -11 -7 -17 0 -6 5 -5 12 2 6 6 9 14 7 17 -3 3 -9
2 -12 -2z"/>
<path d="M345 50 c-3 -5 -2 -10 4 -10 5 0 13 5 16 10 3 6 2 10 -4 10 -5 0 -13
-4 -16 -10z"/>
</g>
</svg>
