<?xml version="1.0" standalone="no"?>
<!DOCTYPE svg PUBLIC "-//W3C//DTD SVG 20010904//EN"
 "http://www.w3.org/TR/2001/REC-SVG-20010904/DTD/svg10.dtd">
<svg version="1.0" xmlns="http://www.w3.org/2000/svg"
 width="182.000000pt" height="57.000000pt" viewBox="0 0 182.000000 57.000000"
 preserveAspectRatio="xMidYMid meet">
<metadata>
Created by potrace 1.10, written by Peter Selinger 2001-2011
</metadata>
<g transform="translate(0.000000,57.000000) scale(0.100000,-0.100000)"
 stroke="none">
<path d="M1757 543 c-4 -3 -7 -14 -7 -24 0 -24 -62 -76 -107 -89 -73 -20 -363
-37 -708 -41 -77 -1 -128 -4 -112 -6 15 -2 27 -8 27 -13 0 -4 -12 -5 -27 -1
-22 6 -28 13 -28 36 0 31 -12 40 -34 26 -12 -8 -12 -12 2 -26 24 -23 22 -38
-3 -25 -14 8 -26 8 -41 0 -15 -8 -24 -8 -34 0 -8 7 -20 10 -27 7 -8 -3 -6 -6
5 -6 10 -1 15 -5 12 -11 -4 -6 6 -10 24 -10 16 0 32 6 34 13 4 9 7 9 14 0 5
-7 28 -14 50 -15 31 -1 43 -6 46 -19 3 -10 0 -20 -7 -22 -6 -2 25 -4 69 -4
l80 0 -65 7 -65 7 90 0 c63 1 83 -2 65 -8 -27 -9 -25 -9 95 10 35 5 4 8 -103
7 -83 -1 -152 2 -152 6 0 4 77 8 170 7 98 0 170 -4 170 -9 0 -5 -8 -7 -17 -4
-15 5 -15 4 -3 -4 8 -5 94 -12 190 -16 101 -4 203 -13 240 -23 36 -8 76 -16
90 -17 14 -2 36 -6 50 -9 14 -4 19 -4 12 -1 -6 3 -9 11 -6 16 4 7 2 8 -5 4 -6
-4 -17 -3 -24 2 -26 21 -214 41 -394 43 -68 1 -123 5 -123 10 0 5 113 9 256 9
l256 0 31 -32 31 -33 -22 39 -23 39 21 14 c11 8 20 21 20 29 0 8 5 12 10 9 13
-8 13 -55 -1 -55 -6 0 -10 -15 -9 -32 4 -69 1 -78 -24 -78 -14 0 -28 5 -31 10
-3 6 -11 10 -17 10 -5 0 3 -15 20 -34 17 -19 33 -44 37 -55 3 -12 10 -21 15
-21 15 0 30 63 24 98 -5 25 -3 33 5 28 8 -5 11 14 11 68 0 46 -4 76 -10 76 -7
0 -9 13 -5 33 10 50 -16 103 -38 80z m23 -53 c0 -5 -7 -10 -16 -10 -8 0 -12 5
-9 10 3 6 10 10 16 10 5 0 9 -4 9 -10z m-10 -44 c0 -12 -11 -35 -25 -50 l-24
-26 -433 2 -433 1 345 8 c354 8 532 22 549 43 11 13 -25 14 -70 2 -13 -4 -4 5
21 18 57 32 70 32 70 2z m29 -141 c0 -5 -4 -3 -9 5 -5 8 -9 22 -9 30 0 16 17
-16 18 -35z m-19 -73 c0 -13 -12 -22 -22 -16 -10 6 -1 24 13 24 5 0 9 -4 9 -8z"/>
<path d="M607 434 c-12 -12 -8 -24 8 -24 8 0 15 -9 15 -20 0 -18 -3 -19 -20
-10 -12 6 -62 9 -122 7 l-103 -3 110 -3 c80 -2 102 -5 81 -11 -15 -5 -71 -5
-125 -1 -100 9 -114 6 -145 -28 -16 -18 -17 -21 -3 -21 9 0 19 5 22 11 4 6 14
8 22 5 8 -4 11 -2 7 5 -4 8 1 9 17 5 l24 -7 -25 16 c-15 10 -17 14 -7 11 10
-3 42 -6 69 -6 53 0 61 -6 18 -13 -14 -2 -42 -11 -62 -19 -28 -13 -67 -16
-163 -15 -69 0 -128 5 -131 9 -3 4 -11 8 -17 8 -7 0 -6 -4 3 -11 11 -8 6 -9
-22 -7 -25 3 -38 0 -38 -8 0 -8 12 -10 38 -7 26 3 34 2 27 -6 -6 -6 -23 -12
-38 -13 -24 -2 -40 -18 -18 -18 19 0 71 23 71 31 0 5 35 9 78 8 54 -1 69 -3
52 -9 l-25 -8 28 -1 c15 -1 27 4 27 9 0 6 23 9 53 8 34 -1 41 -3 20 -5 -26 -3
-32 -9 -35 -31 -2 -15 0 -40 4 -56 10 -39 1 -46 -12 -10 -6 16 -9 45 -5 64 4
26 3 31 -4 20 -23 -33 -12 -79 27 -121 35 -37 39 -39 70 -30 27 8 33 7 29 -4
-3 -7 4 -21 15 -32 12 -10 18 -12 14 -5 -4 6 -3 12 2 12 6 0 12 -7 16 -15 4
-12 21 -15 73 -13 l68 2 -70 6 -70 7 95 0 96 1 -4 -34 c-5 -45 -32 -46 -33 -1
l-1 32 -7 -30 c-9 -36 -1 -48 30 -43 20 2 24 9 25 41 1 21 -3 40 -7 43 -5 3
-5 13 -1 22 5 9 7 37 6 62 -3 58 -3 57 -14 40 -5 -8 -7 -35 -4 -60 5 -43 5
-44 -13 -28 -11 11 -23 14 -33 8 -19 -10 -111 -7 -129 4 -9 6 -12 5 -8 -1 3
-5 0 -10 -8 -10 -8 0 -17 7 -19 14 -4 9 -1 11 6 7 6 -4 9 -3 5 2 -3 5 33 7 87
4 l91 -5 -2 59 c-1 32 -5 61 -8 64 -9 9 -32 -31 -28 -48 5 -21 -22 -44 -42
-36 -9 3 -16 20 -17 43 l-1 38 -4 -33 c-5 -35 10 -62 33 -62 21 0 46 32 41 51
-3 11 -1 22 4 25 5 3 9 -14 9 -39 l0 -43 -85 2 c-71 1 -87 -1 -101 -17 -19
-21 -60 -27 -48 -7 4 7 4 10 -1 6 -14 -13 -55 54 -55 89 0 30 3 33 30 33 22 0
30 5 30 18 1 15 2 15 13 1 11 -14 50 -15 337 -12 179 2 340 5 357 6 18 2 29
-1 25 -5 -4 -4 -71 -9 -147 -10 -77 -1 -123 -4 -103 -6 30 -2 36 -6 31 -20 -6
-16 -5 -16 14 0 17 15 22 16 38 4 11 -8 16 -20 12 -30 -8 -19 -38 -21 -56 -3
-10 10 -12 8 -9 -8 2 -17 -3 -20 -32 -20 -34 0 -35 1 -38 43 -5 66 -21 50 -24
-25 -2 -36 -8 -68 -14 -70 -6 -2 -8 10 -6 32 2 19 -1 42 -8 50 -7 9 -8 15 -2
15 5 0 8 9 5 20 -4 16 -14 20 -48 20 -37 0 -44 -3 -48 -22 l-4 -23 -2 23 c-1
27 -17 29 -23 4 -3 -11 2 -23 13 -30 15 -10 18 -25 17 -106 0 -52 3 -99 6
-105 4 -6 18 -11 32 -11 20 0 24 5 24 32 0 17 3 28 8 24 4 -4 7 -18 7 -29 0
-18 6 -22 30 -22 28 0 30 2 28 38 l-3 37 145 1 c80 0 160 1 178 1 33 1 67 22
67 42 0 6 -5 4 -11 -4 -9 -13 -10 -12 -5 2 3 10 1 20 -4 23 -5 3 -6 20 -3 39
5 32 -15 87 -37 101 -6 4 -167 7 -358 7 -191 1 -311 4 -267 8 l80 6 -80 2
c-53 1 -86 -2 -94 -10 -11 -11 -13 -10 -9 1 11 36 173 51 202 20 8 -9 8 -10
-1 -5 -7 4 -13 2 -13 -3 0 -6 15 -11 33 -11 26 0 33 4 34 20 1 14 -4 20 -18
20 -11 0 -18 -4 -15 -8 3 -5 -11 -4 -30 2 l-35 11 51 3 c41 2 49 6 41 16 -6 7
-10 24 -9 37 3 23 -20 38 -35 23z m30 -10 c-3 -3 -12 -4 -19 -1 -8 3 -5 6 6 6
11 1 17 -2 13 -5z m497 -163 c17 -18 18 -66 5 -137 -3 -15 -5 -15 -186 -21
l-163 -4 0 -40 c0 -47 -29 -57 -32 -11 -2 46 -3 50 -12 59 -5 4 -6 3 -2 -4 11
-19 -5 -15 -20 5 -11 16 -14 14 -25 -13 -10 -25 -13 -27 -17 -11 -2 11 3 23
12 28 9 5 16 19 17 31 0 22 0 22 10 -2 6 -14 15 -21 24 -17 8 3 18 0 22 -7 6
-9 49 -11 168 -7 l160 6 -159 2 c-88 1 -157 4 -155 7 3 2 63 5 135 6 71 1 121
4 112 6 -30 7 -20 22 12 20 31 -2 39 -12 18 -20 -8 -3 -7 -6 4 -6 9 -1 20 4
24 10 8 13 -16 31 -33 24 -7 -2 -13 1 -13 9 0 8 10 11 30 8 16 -2 27 -8 24
-13 -3 -5 0 -9 6 -9 8 0 8 -6 0 -20 -7 -14 -8 -20 0 -20 6 0 16 12 22 26 10
21 9 27 -3 36 -11 8 -11 9 4 4 13 -4 17 0 17 18 0 13 -8 32 -17 43 -10 10 -15
14 -12 8 4 -5 10 -20 13 -32 7 -21 4 -23 -28 -23 -34 0 -36 2 -36 34 0 28 4
35 23 39 12 2 25 5 28 6 3 0 14 -8 23 -18z m-414 -1 c0 -5 -6 -10 -12 -11 -10
0 -10 -2 0 -6 6 -2 12 -21 12 -41 -1 -35 -2 -36 -15 -18 -11 15 -15 16 -16 5
-1 -8 -4 -3 -8 11 -5 14 -5 29 0 34 4 5 5 15 2 22 -3 9 2 14 16 14 12 0 21 -4
21 -10z m30 -5 c0 -8 -4 -15 -10 -15 -5 0 -10 7 -10 15 0 8 5 15 10 15 6 0 10
-7 10 -15z m290 -19 c0 -31 -3 -34 -36 -39 -47 -8 -69 0 -52 20 9 11 9 19 0
34 -11 18 -9 19 38 19 l50 0 0 -34z m-288 -44 c5 -33 0 -52 -13 -52 -5 0 -9
18 -9 40 0 46 16 54 22 12z m85 -18 c-3 -3 -12 -4 -19 -1 -8 3 -5 6 6 6 11 1
17 -2 13 -5z m177 -4 c-12 -5 -25 -13 -28 -18 -8 -13 -173 -15 -181 -2 -4 7
26 11 92 12 l98 2 -75 6 -75 6 95 2 c62 0 88 -2 74 -8z m-680 -11 c-2 -4 4
-12 13 -18 10 -6 13 -11 7 -11 -6 0 -18 8 -27 18 -14 15 -15 19 -2 19 8 0 12
-4 9 -8z m366 -14 c0 -8 -4 -16 -9 -19 -5 -3 -8 5 -7 18 1 25 16 26 16 1z
m460 -27 c0 -18 -2 -20 -9 -8 -6 8 -7 18 -5 22 9 14 14 9 14 -14z m-538 -17
c7 -8 8 -11 3 -8 -6 3 -55 7 -108 8 -54 2 -100 6 -102 10 -9 14 194 4 207 -10z
m101 -48 c-4 -24 -11 -33 -24 -33 -23 0 -26 35 -4 44 8 3 15 13 15 23 0 10 3
13 9 8 5 -6 7 -25 4 -42z"/>
<path d="M684 428 c-4 -6 -2 -14 4 -16 7 -2 10 -8 6 -13 -9 -15 6 -10 23 7 14
13 14 17 2 25 -19 12 -26 11 -35 -3z"/>
<path d="M26 342 c-3 -6 3 -12 15 -15 12 -3 19 -1 16 6 -5 15 -24 20 -31 9z"/>
<path d="M670 332 c0 -21 5 -22 70 -22 63 0 70 2 70 20 0 11 -7 20 -16 20 -8
0 -12 -4 -9 -10 3 -5 1 -10 -4 -10 -6 0 -11 4 -11 8 0 4 -16 9 -36 10 -23 2
-33 -1 -29 -8 9 -14 -8 -13 -23 2 -9 9 -12 7 -12 -10z m85 -2 c3 -5 -1 -10 -9
-10 -9 0 -16 5 -16 10 0 6 4 10 9 10 6 0 13 -4 16 -10z"/>
<path d="M153 283 c9 -2 25 -2 35 0 9 3 1 5 -18 5 -19 0 -27 -2 -17 -5z"/>
<path d="M1189 198 c-7 -25 -7 -48 1 -48 6 0 10 11 10 25 0 20 -7 35 -11 23z"/>
</g>
</svg>
