<?xml version="1.0" standalone="no"?>
<!DOCTYPE svg PUBLIC "-//W3C//DTD SVG 20010904//EN"
 "http://www.w3.org/TR/2001/REC-SVG-20010904/DTD/svg10.dtd">
<svg version="1.0" xmlns="http://www.w3.org/2000/svg"
 width="220.000000pt" height="147.000000pt" viewBox="0 0 220.000000 147.000000"
 preserveAspectRatio="xMidYMid meet">
<metadata>
Created by potrace 1.10, written by Peter Selinger 2001-2011
</metadata>
<g transform="translate(0.000000,147.000000) scale(0.100000,-0.100000)"
fill="#ff00fc" stroke="none">
<path d="M372 1397 c-7 -8 -9 -17 -5 -21 4 -4 0 -4 -9 -1 -10 4 -22 -2 -31
-15 -9 -12 -20 -19 -26 -16 -6 4 -22 1 -36 -7 -29 -15 -56 -1 514 -275 236
-114 245 -118 263 -100 22 22 23 28 3 28 -8 0 -15 -6 -16 -12 0 -7 -5 -3 -11
10 -6 12 -15 22 -20 22 -5 0 -6 -6 -3 -12 4 -7 0 -5 -7 4 -9 10 -19 13 -27 9
-17 -11 -53 -2 -45 11 3 5 15 6 27 3 16 -4 14 -1 -6 10 -22 13 -31 14 -43 4
-12 -9 -13 -9 -9 2 4 11 -20 25 -87 54 -382 160 -514 218 -523 227 -13 14 -20
17 268 -106 136 -59 253 -104 259 -100 7 4 8 3 4 -4 -8 -14 3 -15 22 -3 9 5
-6 15 -47 31 -35 13 -58 27 -54 33 3 6 1 7 -5 3 -6 -4 -22 -4 -36 0 l-25 6 27
23 c47 39 134 82 205 100 92 24 132 12 209 -62 36 -33 62 -51 70 -47 6 4 2 -8
-10 -27 -21 -35 -21 -36 -3 -70 10 -19 22 -34 27 -34 5 0 27 -9 48 -19 50 -24
152 -32 200 -16 20 6 50 23 67 37 27 23 32 24 47 11 12 -10 44 -16 102 -17
153 -3 233 -41 265 -125 14 -37 15 -52 5 -97 -15 -73 -71 -184 -92 -184 -9 0
-20 -4 -25 -9 -4 -5 -3 -6 5 -2 7 5 12 1 12 -9 0 -9 -9 -19 -19 -22 -18 -5
-17 -7 8 -46 16 -23 41 -66 57 -96 l28 -53 29 33 c16 19 43 63 60 98 49 104
48 262 -3 323 -20 23 -20 23 0 -22 11 -25 20 -63 20 -85 0 -58 -48 -213 -82
-262 -27 -41 -39 -52 -37 -35 1 4 0 10 -1 15 -1 4 -3 10 -4 15 -7 26 -41 80
-48 76 -11 -7 -10 2 6 41 15 36 30 49 20 18 -5 -15 -4 -15 4 -3 6 8 9 17 6 21
-2 4 7 26 20 49 13 23 26 38 28 33 3 -4 3 -2 1 6 -2 7 2 20 9 29 8 9 13 47 13
101 0 77 -3 90 -25 119 -14 17 -49 43 -78 58 -45 23 -71 28 -155 32 -102 5
-143 15 -132 33 13 20 -18 8 -36 -15 -30 -38 -80 -56 -156 -56 -70 0 -160 30
-149 49 4 5 1 13 -5 17 -8 5 -9 3 -4 -6 5 -8 3 -11 -6 -8 -26 9 -22 63 6 94
l27 29 -21 -36 c-23 -40 -26 -54 -10 -44 5 4 15 -7 21 -23 11 -29 43 -52 73
-52 25 0 26 18 1 45 -14 15 -35 47 -46 71 -19 39 -24 43 -50 38 -24 -5 -35 1
-78 45 -27 27 -61 55 -76 61 -75 28 -209 -3 -316 -73 l-65 -43 -110 43 c-60
24 -123 46 -139 48 -43 6 -87 26 -80 36 3 5 9 7 14 4 5 -3 18 -1 29 4 16 9 18
8 14 -8 -3 -10 0 -22 6 -25 6 -4 12 -1 12 6 1 7 3 24 4 38 1 14 4 31 6 39 5
20 -25 25 -39 8z m875 -288 c-3 -12 0 -16 9 -12 8 3 14 0 14 -6 0 -19 -29 -12
-41 10 -9 17 -8 20 3 14 7 -4 3 2 -10 12 -13 10 -20 22 -16 26 12 11 46 -26
41 -44z m753 -496 c-11 -17 -11 -17 -6 0 3 10 6 24 7 30 0 9 2 9 5 0 3 -7 0
-20 -6 -30z m-52 -104 c-12 -22 -28 -45 -36 -51 -7 -7 1 12 19 40 38 62 50 69
17 11z"/>
<path d="M110 1355 c-18 -19 -20 -25 -8 -25 17 0 41 -25 44 -46 3 -21 -14 -17
-21 6 -3 11 -11 20 -17 20 -5 0 -7 -8 -4 -17 4 -9 1 -20 -6 -24 -9 -6 -9 -11
2 -23 12 -15 14 -15 31 0 17 15 19 15 25 0 3 -9 11 -16 16 -16 6 0 7 7 4 16
-6 17 9 44 25 44 5 0 9 -7 9 -15 0 -8 6 -12 14 -9 7 3 20 -2 29 -10 9 -9 19
-16 23 -16 4 0 57 -29 118 -63 61 -35 183 -101 271 -147 88 -46 164 -89 168
-97 7 -11 61 -45 77 -48 25 -5 47 -18 47 -28 0 -6 4 -21 9 -31 6 -15 4 -18 -8
-13 -23 8 -58 -34 -58 -70 0 -19 10 -43 25 -61 25 -30 98 -74 109 -66 3 2 4 1
2 -2 -3 -3 -1 -17 4 -30 12 -30 4 -51 -24 -66 -18 -10 -19 -9 -8 4 19 24 -2
31 -23 8 -13 -15 -15 -24 -8 -31 21 -21 76 25 88 73 5 21 0 34 -30 67 -21 23
-43 41 -50 41 -21 0 -75 56 -75 78 0 25 19 39 30 22 5 -9 11 -6 22 9 l15 21
20 -23 c11 -12 32 -32 46 -44 21 -18 27 -19 27 -8 0 9 7 18 15 21 8 4 15 14
15 23 0 14 2 14 10 1 8 -13 10 -13 10 2 0 9 -8 21 -17 27 -17 9 -17 11 -1 27
21 21 37 11 18 -11 -7 -8 -11 -15 -9 -16 11 -3 89 -7 89 -5 0 4 -88 66 -94 66
-3 0 -6 -7 -6 -15 0 -8 -4 -15 -10 -15 -5 0 -10 6 -10 14 0 8 -6 17 -12 20 -7
3 -2 3 12 -1 22 -5 23 -4 12 10 -7 8 -21 13 -33 10 -14 -4 -18 -2 -13 10 6 17
-26 33 -582 297 -135 64 -247 124 -254 135 -12 18 -12 19 3 6 10 -7 17 -10 17
-5 0 20 -16 31 -40 29 -14 -1 -32 1 -41 6 -11 6 -23 1 -39 -16z m63 -20 c29
-26 33 -35 15 -35 -14 0 -58 40 -58 52 0 14 14 8 43 -17z m359 -202 c284 -158
301 -166 314 -148 8 10 14 14 14 9 0 -6 -5 -15 -11 -21 -7 -7 11 -22 63 -51
50 -27 75 -36 80 -28 12 18 9 29 -6 23 -10 -4 -13 -1 -9 9 4 10 9 12 18 4 6
-5 14 -7 17 -4 3 2 8 -2 12 -11 3 -9 2 -13 -4 -10 -12 7 -26 -23 -16 -33 4 -3
12 0 17 8 8 12 9 11 7 -5 -2 -14 3 -21 19 -23 12 -2 24 -10 27 -19 4 -11 2
-14 -9 -10 -8 4 -17 2 -20 -4 -9 -14 -25 -1 -19 15 6 14 -22 30 -37 20 -13 -8
-11 -24 3 -21 7 1 12 -4 13 -11 0 -17 25 -31 42 -25 7 3 13 0 13 -7 0 -6 -5
-8 -12 -4 -7 4 -8 3 -4 -4 4 -6 13 -9 21 -5 19 7 19 -1 1 -16 -22 -18 -100 60
-93 91 5 21 -25 40 -374 232 -208 114 -379 210 -379 212 0 9 25 -4 312 -163z
m262 -119 c3 -8 2 -12 -4 -9 -6 3 -10 10 -10 16 0 14 7 11 14 -7z m141 -72
c-3 -3 -11 0 -18 7 -9 10 -8 11 6 5 10 -3 15 -9 12 -12z m35 -6 c0 -3 -4 -8
-10 -11 -5 -3 -10 -1 -10 4 0 6 5 11 10 11 6 0 10 -2 10 -4z m120 -136 c0 -5
-4 -10 -10 -10 -5 0 -10 5 -10 10 0 6 5 10 10 10 6 0 10 -4 10 -10z"/>
<path d="M920 1280 c-18 -12 -2 -12 25 0 13 6 15 9 5 9 -8 0 -22 -4 -30 -9z"/>
<path d="M200 1220 c-19 -16 -40 -29 -46 -30 -6 0 -19 -9 -28 -19 -14 -15 -15
-24 -6 -40 7 -14 7 -21 0 -21 -5 0 -10 7 -10 16 0 14 -3 14 -16 4 -13 -11 -13
-15 -1 -27 12 -12 20 -12 55 3 37 14 46 24 44 45 -1 3 12 19 28 34 28 27 41
65 22 65 -4 0 -23 -13 -42 -30z m-30 -74 c0 -2 -7 -7 -16 -10 -8 -3 -12 -2 -9
4 6 10 25 14 25 6z"/>
<path d="M274 1205 c4 -10 -1 -15 -14 -15 -11 0 -20 -7 -20 -15 0 -19 4 -19
43 1 43 22 44 24 27 34 -23 15 -43 12 -36 -5z"/>
<path d="M1130 1165 c-7 -9 -11 -17 -9 -20 3 -2 10 5 17 15 14 24 10 26 -8 5z"/>
<path d="M290 1166 c0 -2 7 -9 15 -16 9 -7 15 -8 15 -2 0 5 -7 12 -15 16 -8 3
-15 4 -15 2z"/>
<path d="M770 1156 c0 -2 45 -20 100 -41 94 -35 130 -55 77 -41 -17 4 -24 1
-24 -9 0 -19 17 -24 45 -14 40 15 19 33 -84 71 -98 37 -114 42 -114 34z"/>
<path d="M1004 1118 c-19 -23 -19 -23 2 -5 11 9 24 14 29 10 4 -5 5 -2 1 5 -9
16 -10 16 -32 -10z"/>
<path d="M1911 1114 c0 -11 3 -14 6 -6 3 7 2 16 -1 19 -3 4 -6 -2 -5 -13z"/>
<path d="M832 1103 c-9 -3 3 -13 28 -24 48 -22 54 -23 45 -9 -3 6 0 10 7 10 7
1 -2 7 -21 15 -36 16 -39 16 -59 8z m48 -13 c8 -5 11 -10 5 -10 -5 0 -17 5
-25 10 -8 5 -10 10 -5 10 6 0 17 -5 25 -10z"/>
<path d="M237 1094 c-8 -8 1 -24 14 -24 5 0 9 7 9 15 0 15 -12 20 -23 9z"/>
<path d="M487 1040 c-78 -101 -105 -197 -73 -259 20 -38 49 -55 127 -76 35
-10 69 -24 75 -32 10 -11 13 -12 18 -1 3 7 3 3 0 -9 -7 -29 -1 -29 30 2 34 34
72 41 123 23 24 -9 46 -12 48 -7 8 11 -25 27 -71 35 -32 4 -46 1 -76 -19 -31
-22 -39 -23 -49 -11 -6 7 -30 18 -53 24 -77 19 -111 33 -130 54 -10 12 -23 20
-30 18 -8 -3 -8 0 1 9 7 7 9 20 4 33 -12 33 -3 85 21 125 37 63 69 102 79 96
5 -3 6 1 3 9 -3 9 -2 16 3 16 5 0 9 -10 10 -21 1 -12 7 -27 13 -33 8 -8 9 -6
5 6 -6 15 -3 16 24 5 16 -6 28 -14 26 -17 -2 -3 6 -7 18 -7 29 -3 68 -24 61
-34 -3 -5 1 -6 9 -3 18 6 59 -35 50 -49 -3 -6 -1 -7 6 -3 9 6 9 12 -1 24 -9
12 -6 11 10 -2 12 -11 22 -16 22 -12 0 4 10 1 23 -5 20 -11 21 -11 9 4 -8 9
-46 32 -85 52 -40 19 -101 53 -137 75 -36 22 -67 40 -70 40 -3 -1 -22 -23 -43
-50z"/>
<path d="M210 1073 c0 -4 -14 -16 -30 -25 -17 -9 -30 -24 -30 -32 0 -8 -6 -17
-12 -19 -7 -3 -8 -6 -3 -6 17 0 96 77 85 84 -5 3 -10 3 -10 -2z"/>
<path d="M1010 1072 c0 -15 28 -23 36 -9 4 7 4 9 -1 5 -4 -4 -14 -3 -22 3 -8
7 -13 8 -13 1z"/>
<path d="M1070 1060 c-17 -10 -15 -12 25 -32 19 -10 37 -12 50 -7 11 4 14 8 7
8 -8 1 -10 6 -6 14 5 7 0 6 -11 -3 -13 -11 -19 -12 -22 -3 -2 7 -12 9 -20 6
-12 -5 -15 -2 -10 10 7 20 7 20 -13 7z"/>
<path d="M982 1042 c-16 -11 89 -55 111 -46 18 7 13 26 -6 22 -7 -1 -23 4 -36
11 -18 10 -22 10 -16 0 6 -9 3 -11 -9 -6 -10 4 -22 7 -27 7 -6 0 -7 5 -4 10 7
12 4 12 -13 2z"/>
<path d="M1775 1020 c3 -5 12 -10 20 -10 8 0 28 -15 44 -32 17 -18 31 -28 31
-22 0 13 -37 47 -67 63 -27 14 -36 14 -28 1z"/>
<path d="M1135 1002 c-51 -19 -51 -20 -36 -35 11 -9 14 -9 18 1 3 6 9 12 15
12 7 0 6 -5 -1 -14 -8 -9 -8 -16 -2 -20 5 -4 12 -2 16 4 12 19 26 11 15 -9 -8
-16 -6 -21 10 -26 11 -3 20 -10 20 -15 0 -4 6 -10 13 -13 8 -3 14 1 14 9 0 8
-7 14 -15 14 -8 0 -12 6 -9 14 3 8 3 16 -1 18 -4 2 -17 15 -30 30 l-24 26 44
-2 c24 -2 70 -15 103 -29 89 -39 173 -34 203 13 18 29 -8 44 -38 23 l-24 -17
24 -7 25 -6 -30 -12 c-26 -11 -41 -9 -120 17 -120 40 -143 43 -190 24z"/>
<path d="M1710 996 c0 -2 9 -6 20 -9 11 -3 18 -1 14 4 -5 9 -34 13 -34 5z"/>
<path d="M640 980 c20 -13 33 -13 25 0 -3 6 -14 10 -23 10 -15 0 -15 -2 -2
-10z"/>
<path d="M524 961 c4 -5 0 -11 -6 -13 -7 -3 1 -5 19 -5 29 0 30 2 15 13 -20
16 -36 18 -28 5z"/>
<path d="M1052 958 c-7 -7 -12 -15 -12 -19 0 -10 76 -60 97 -64 10 -1 17 -7
17 -11 -1 -5 19 -24 44 -42 30 -23 43 -28 38 -17 -4 12 -2 16 8 12 9 -4 17 2
21 14 5 14 11 17 23 10 28 -15 85 -17 89 -4 3 9 -7 12 -35 9 -31 -2 -39 0 -35
10 8 21 -14 17 -37 -6 -11 -11 -20 -17 -20 -14 0 4 -7 1 -16 -7 -13 -10 -17
-10 -24 2 -6 8 -5 15 1 18 19 6 -21 39 -42 34 -15 -4 -18 -2 -13 11 4 11 1 16
-10 16 -9 0 -16 5 -16 11 0 13 -40 48 -55 49 -6 0 -16 -5 -23 -12z m44 -33
c-3 -9 -11 -13 -16 -10 -8 5 -7 11 1 21 14 18 24 11 15 -11z m39 -35 c3 -6 -1
-7 -9 -4 -18 7 -21 14 -7 14 6 0 13 -4 16 -10z"/>
<path d="M1640 961 c0 -6 4 -13 10 -16 6 -3 7 1 4 9 -7 18 -14 21 -14 7z"/>
<path d="M720 941 c0 -6 4 -13 10 -16 6 -3 7 1 4 9 -7 18 -14 21 -14 7z"/>
<path d="M1800 946 c0 -2 8 -10 18 -17 15 -13 16 -12 3 4 -13 16 -21 21 -21
13z"/>
<path d="M569 923 c-13 -16 -12 -17 4 -4 9 7 17 15 17 17 0 8 -8 3 -21 -13z"/>
<path d="M1211 933 c0 -9 58 -57 63 -52 2 2 -12 17 -31 32 -18 16 -33 25 -32
20z"/>
<path d="M1588 923 c6 -2 18 -2 25 0 6 3 1 5 -13 5 -14 0 -19 -2 -12 -5z"/>
<path d="M1737 923 c-9 -8 12 -33 27 -33 6 0 3 5 -7 11 -9 6 -15 14 -12 20 7
10 2 12 -8 2z"/>
<path d="M508 913 c6 -2 9 -10 5 -16 -3 -7 -3 -9 2 -5 10 10 37 -11 30 -23 -3
-4 -12 -6 -20 -3 -15 6 -15 -20 0 -33 4 -4 5 -2 1 5 -4 7 -1 12 8 12 9 0 16 5
16 11 0 6 9 8 20 4 11 -4 20 -2 20 4 0 6 -4 12 -10 12 -5 1 -15 2 -21 3 -6 0
-16 9 -23 19 -7 9 -19 17 -27 16 -10 0 -11 -2 -1 -6z"/>
<path d="M1793 903 c-8 -3 -3 -13 14 -29 14 -13 28 -22 31 -19 3 2 -6 14 -19
26 -18 15 -20 19 -6 15 11 -3 16 -2 12 4 -7 11 -13 11 -32 3z"/>
<path d="M461 889 c-1 -9 7 -23 17 -30 15 -12 16 -12 6 1 -6 8 -14 22 -17 30
-5 13 -6 12 -6 -1z"/>
<path d="M580 895 c0 -7 30 -13 34 -7 3 4 -4 9 -15 9 -10 1 -19 0 -19 -2z"/>
<path d="M1677 889 c7 -7 15 -10 18 -7 3 3 -2 9 -12 12 -14 6 -15 5 -6 -5z"/>
<path d="M1750 876 c0 -2 8 -10 18 -17 15 -13 16 -12 3 4 -13 16 -21 21 -21
13z"/>
<path d="M535 821 c-3 -5 -2 -12 3 -15 5 -3 9 1 9 9 0 17 -3 19 -12 6z"/>
<path d="M1273 807 c4 -13 46 -12 59 1 5 5 -8 8 -27 9 -23 1 -35 -3 -32 -10z"/>
<path d="M1338 792 c-22 -14 -25 -21 -16 -30 19 -19 30 -14 23 9 -5 16 -4 19
5 14 7 -4 15 -2 19 4 5 8 17 -2 34 -27 29 -44 116 -121 165 -146 17 -9 32 -14
32 -11 0 2 -17 13 -37 24 -44 23 -91 66 -147 134 -21 26 -41 47 -45 47 -3 0
-18 -8 -33 -18z"/>
<path d="M1185 774 c-16 -24 -16 -26 2 -40 24 -18 30 -17 43 5 7 14 6 21 -2
23 -7 3 -5 7 6 11 10 4 15 3 11 -3 -3 -6 -2 -10 3 -10 12 0 23 26 15 34 -4 3
-13 0 -21 -7 -12 -9 -16 -9 -19 1 -7 19 -19 14 -38 -14z m25 -4 c-8 -5 -10
-10 -4 -10 6 0 11 -7 11 -15 0 -20 -13 -19 -21 1 -7 19 0 34 17 34 7 0 6 -4
-3 -10z"/>
<path d="M490 779 c0 -5 5 -7 10 -4 6 3 10 8 10 11 0 2 -4 4 -10 4 -5 0 -10
-5 -10 -11z"/>
<path d="M1130 782 c0 -4 10 -9 22 -9 18 -2 20 0 8 7 -18 12 -30 13 -30 2z"/>
<path d="M1277 766 c-4 -11 -1 -13 11 -9 14 6 15 4 4 -9 -10 -13 -9 -16 7 -21
17 -4 18 -2 9 24 -11 32 -23 37 -31 15z"/>
<path d="M1241 721 c-7 -5 -10 -14 -7 -20 9 -14 0 -14 -25 -1 -10 6 -19 8 -19
5 0 -6 63 -35 75 -35 3 0 4 5 3 12 -2 6 8 14 21 17 l24 6 -27 13 c-32 14 -28
14 -45 3z m29 -11 c0 -5 -4 -10 -10 -10 -5 0 -10 5 -10 10 0 6 5 10 10 10 6 0
10 -4 10 -10z"/>
<path d="M1360 714 c0 -8 5 -12 10 -9 6 3 10 10 10 16 0 5 -4 9 -10 9 -5 0
-10 -7 -10 -16z"/>
<path d="M1380 702 c0 -14 23 -32 42 -32 10 0 18 -6 18 -13 0 -7 15 -21 33
-31 87 -46 112 -66 83 -66 -9 0 -36 11 -59 24 -52 30 -156 70 -164 62 -3 -3
10 -12 28 -20 19 -8 66 -28 104 -44 39 -17 78 -32 87 -34 16 -3 17 -5 3 -32
-18 -34 -18 -36 -5 -36 6 0 10 7 10 15 0 8 5 15 10 15 6 0 10 7 10 15 0 23
124 145 148 145 11 0 24 5 27 10 4 6 -5 10 -20 10 -18 0 -44 -17 -86 -56 l-59
-57 -62 43 c-35 24 -65 47 -68 50 -10 11 -60 40 -70 40 -5 0 -10 -4 -10 -8z"/>
<path d="M457 679 c7 -7 15 -10 18 -7 3 3 -2 9 -12 12 -14 6 -15 5 -6 -5z"/>
<path d="M490 672 c0 -6 13 -24 30 -40 28 -29 57 -42 124 -57 25 -5 28 -4 18
8 -7 8 -23 15 -36 15 -33 0 -93 31 -116 60 -11 13 -20 20 -20 14z"/>
<path d="M683 660 c-18 -11 -33 -24 -33 -30 0 -6 14 -29 30 -52 17 -22 30 -47
30 -53 0 -7 6 -15 14 -18 15 -6 49 29 41 43 -8 13 83 24 108 12 17 -7 11 -9
-28 -6 -45 4 -47 3 -20 -7 17 -6 37 -11 45 -11 8 -1 18 -6 22 -12 4 -6 6 3 4
20 -4 44 -40 91 -86 114 -50 25 -86 25 -127 0z m95 -8 c9 -9 25 -16 34 -14 9
2 25 -10 37 -26 l21 -30 -38 0 c-67 -1 -80 -5 -77 -23 2 -10 -2 -16 -10 -15
-22 3 -46 29 -41 43 3 8 2 12 -2 9 -4 -3 -13 4 -20 14 -10 16 -7 21 21 38 41
26 53 26 75 4z"/>
<path d="M836 671 c-8 -13 21 -34 35 -25 8 4 9 3 5 -4 -8 -14 17 -55 27 -45 4
3 8 2 8 -3 11 -73 -4 -118 -50 -157 l-32 -26 31 -27 c16 -15 39 -47 51 -71 26
-55 36 -50 13 6 -9 23 -30 52 -48 66 -17 14 -25 25 -17 25 8 0 23 -8 34 -17
19 -17 20 -17 14 0 -9 24 0 21 14 -4 8 -15 8 -19 0 -15 -15 10 -14 3 6 -38 9
-19 20 -33 24 -31 4 3 5 -3 2 -13 -5 -22 35 -75 53 -68 7 3 16 0 20 -6 5 -7 2
-8 -6 -3 -9 6 -11 4 -5 -4 16 -27 96 -51 166 -51 110 0 237 53 369 153 30 23
59 45 64 49 6 4 4 14 -7 26 -21 23 -22 36 -2 25 18 -11 105 -143 105 -160 0
-7 4 -13 8 -13 15 0 82 76 75 84 -5 4 -3 6 3 4 6 -2 29 13 51 34 38 33 40 38
27 56 -12 18 -32 53 -99 179 -8 15 -16 19 -25 13 -11 -7 -12 -14 -2 -35 10
-21 9 -27 -3 -31 -8 -3 -19 -3 -25 1 -5 3 -10 2 -10 -4 0 -16 20 -24 33 -13 7
5 20 12 30 15 14 5 18 2 16 -11 -3 -18 34 -97 51 -107 6 -4 8 -11 4 -16 -3 -5
-10 -7 -15 -4 -5 3 -6 -1 -3 -10 5 -13 9 -13 22 -3 14 12 14 11 1 -9 -7 -12
-16 -18 -19 -13 -3 5 -28 -13 -55 -40 -54 -55 -66 -61 -60 -30 2 11 0 18 -5
15 -5 -3 -14 4 -20 15 -8 15 -8 20 2 21 7 0 1 5 -15 11 -15 5 -25 14 -21 19 3
5 1 9 -5 9 -9 0 3 55 15 69 5 6 43 -42 44 -54 0 -13 52 -45 72 -45 9 0 10 2 1
8 -19 12 -19 40 0 54 17 13 16 16 -15 49 -18 19 -45 43 -60 52 -27 17 -28 16
-44 -8 -9 -13 -18 -42 -21 -64 -3 -24 -10 -38 -16 -34 -5 3 -20 7 -32 8 -23 3
-30 -20 -12 -43 13 -16 -27 -52 -59 -52 -12 0 -30 -7 -38 -16 -24 -23 -19 -26
12 -8 l27 16 -25 -20 c-14 -11 -26 -19 -29 -17 -2 2 -18 -7 -36 -20 -17 -14
-37 -25 -43 -25 -7 0 -12 -5 -12 -12 0 -6 -3 -9 -6 -5 -3 3 -27 -4 -52 -15
-26 -11 -79 -22 -119 -25 -60 -5 -79 -2 -115 15 -63 31 -93 61 -123 122 -15
30 -30 62 -34 70 -4 8 -17 19 -28 24 -21 10 -21 10 4 43 47 61 40 118 -23 192
-27 32 -39 38 -48 22z m902 -187 c44 -38 51 -51 27 -51 -8 0 -11 5 -8 10 3 5
0 7 -8 5 -8 -3 -13 -15 -12 -27 4 -31 -10 -19 -42 34 -24 41 -26 65 -6 65 4 0
26 -16 49 -36z"/>
<path d="M1280 671 c0 -10 30 -24 37 -17 3 2 -5 9 -16 16 -12 6 -21 7 -21 1z"/>
<path d="M1758 670 c-9 -6 -45 -45 -81 -87 -35 -43 -87 -103 -115 -133 -28
-30 -49 -56 -47 -58 5 -5 56 48 168 176 45 50 87 92 94 92 7 0 13 5 13 10 0
12 -10 12 -32 0z"/>
<path d="M1906 667 c3 -10 9 -15 12 -12 3 3 0 11 -7 18 -10 9 -11 8 -5 -6z"/>
<path d="M611 634 c0 -11 3 -14 6 -6 3 7 2 16 -1 19 -3 4 -6 -2 -5 -13z"/>
<path d="M1270 596 c0 -2 8 -10 18 -17 15 -13 16 -12 3 4 -13 16 -21 21 -21
13z"/>
<path d="M623 563 c9 -2 17 -8 17 -13 0 -4 10 -5 23 -2 22 6 22 6 -3 13 -14 4
-32 7 -40 7 -10 0 -9 -2 3 -5z"/>
<path d="M1296 529 c-76 -51 -140 -141 -181 -258 -13 -39 -13 -41 7 -52 26
-14 115 -6 173 15 22 9 36 16 30 16 -5 1 11 12 38 26 26 13 47 26 47 29 0 6
-40 -10 -102 -41 -54 -27 -170 -45 -181 -27 -3 5 1 24 10 43 8 19 20 46 26 60
18 41 68 112 75 106 6 -7 42 23 42 36 0 13 36 49 51 52 8 1 23 7 34 14 20 11
20 11 -1 12 -11 0 -42 -14 -68 -31z m-26 -53 c0 -2 -7 -9 -15 -16 -13 -11 -14
-10 -9 4 5 14 24 23 24 12z"/>
<path d="M785 540 c3 -5 2 -10 -3 -10 -8 0 -32 -42 -32 -56 0 -3 14 6 31 20
17 14 35 26 40 26 5 0 9 5 9 11 0 5 -4 8 -9 4 -5 -3 -12 -1 -16 5 -3 5 -11 10
-16 10 -6 0 -7 -4 -4 -10z"/>
<path d="M1065 489 c-4 -6 -5 -12 -2 -15 2 -3 7 2 10 11 7 17 1 20 -8 4z"/>
<path d="M1026 457 c3 -10 9 -15 12 -12 3 3 0 11 -7 18 -10 9 -11 8 -5 -6z"/>
<path d="M1520 450 c-6 -11 -8 -20 -6 -20 3 0 10 9 16 20 6 11 8 20 6 20 -3 0
-10 -9 -16 -20z"/>
<path d="M670 449 c0 -5 5 -7 10 -4 6 3 10 8 10 11 0 2 -4 4 -10 4 -5 0 -10
-5 -10 -11z"/>
<path d="M747 444 c-3 -5 1 -15 9 -22 16 -14 18 -5 5 17 -5 7 -11 9 -14 5z"/>
<path d="M997 439 c7 -7 15 -10 18 -7 3 3 -2 9 -12 12 -14 6 -15 5 -6 -5z"/>
<path d="M1077 419 c7 -7 15 -10 18 -7 3 3 -2 9 -12 12 -14 6 -15 5 -6 -5z"/>
<path d="M1795 401 c-3 -5 -2 -12 3 -15 5 -3 9 1 9 9 0 17 -3 19 -12 6z"/>
<path d="M1106 387 c3 -10 9 -15 12 -12 3 3 0 11 -7 18 -10 9 -11 8 -5 -6z"/>
<path d="M1461 350 c-19 -16 -33 -32 -30 -34 2 -3 22 11 44 29 22 19 36 34 30
34 -5 0 -25 -13 -44 -29z"/>
<path d="M1586 321 c-21 -21 -77 -62 -125 -90 -47 -28 -91 -54 -96 -59 -6 -5
-17 -7 -25 -4 -13 3 -13 2 -1 -6 10 -7 26 -3 55 14 23 14 55 31 73 39 18 8 51
33 75 55 68 64 75 66 97 28 11 -18 24 -38 30 -45 7 -8 0 -20 -25 -42 -19 -17
-39 -29 -44 -26 -5 3 -7 -3 -5 -15 2 -11 -1 -23 -7 -26 -7 -4 -8 -2 -4 4 4 7
3 12 -3 12 -5 0 -13 -5 -16 -10 -3 -5 -12 -10 -18 -10 -7 0 -6 4 3 11 10 7 11
9 2 7 -8 -2 -14 -8 -14 -13 0 -16 -19 -35 -35 -35 -8 0 -11 4 -8 10 3 6 -1 7
-10 3 -13 -4 -14 -8 -4 -14 9 -5 0 -13 -27 -25 -21 -9 -49 -22 -62 -27 -33
-15 -138 -16 -195 -1 -61 16 -92 35 -140 87 l-38 42 22 -37 c59 -106 208 -160
338 -123 69 20 205 93 262 141 24 20 55 41 69 46 25 10 25 10 4 18 -12 5 -29
22 -38 39 -9 17 -23 45 -32 61 -8 17 -16 30 -17 30 -1 -1 -19 -18 -41 -39z
m104 -95 c0 -2 -8 -10 -17 -17 -16 -13 -17 -12 -4 4 13 16 21 21 21 13z"/>
<path d="M1840 319 c0 -5 -4 -8 -9 -5 -5 3 -15 -2 -22 -12 -12 -15 -12 -15 1
-5 8 6 19 11 25 11 5 0 11 5 13 11 2 6 1 11 -2 11 -3 0 -6 -5 -6 -11z"/>
<path d="M1619 213 c-13 -16 -12 -17 4 -4 16 13 21 21 13 21 -2 0 -10 -8 -17
-17z"/>
<path d="M967 213 c-12 -12 -7 -25 7 -20 8 3 17 1 20 -6 3 -8 5 -8 5 -1 1 15
-24 36 -32 27z"/>
<path d="M1442 184 c-7 -8 -8 -14 -3 -14 10 0 25 19 20 25 -2 1 -10 -3 -17
-11z"/>
<path d="M1285 150 c-11 -5 -44 -9 -72 -9 -29 -1 -53 -6 -53 -11 0 -6 11 -8
26 -4 15 4 25 3 21 -2 -3 -5 5 -9 18 -9 13 0 21 4 17 9 -3 5 5 7 17 3 13 -3
20 -3 17 1 -4 3 6 11 21 18 16 7 24 12 18 12 -5 1 -19 -3 -30 -8z"/>
<path d="M989 133 c-13 -16 -12 -17 4 -4 16 13 21 21 13 21 -2 0 -10 -8 -17
-17z"/>
<path d="M1635 120 c-3 -6 1 -7 9 -4 18 7 21 14 7 14 -6 0 -13 -4 -16 -10z"/>
<path d="M1010 114 c0 -5 7 -18 15 -28 12 -16 15 -17 15 -4 0 8 -7 21 -15 28
-8 7 -15 9 -15 4z"/>
<path d="M1440 100 c-9 -6 -10 -10 -3 -10 6 0 15 5 18 10 8 12 4 12 -15 0z"/>
<path d="M1330 63 l-35 -14 34 6 c34 5 49 12 40 18 -2 2 -20 -3 -39 -10z"/>
</g>
</svg>
